<svg width="223" height="171" viewBox="0 0 223 171" fill="none" xmlns="http://www.w3.org/2000/svg">
<path d="M31.4786 124.625C30.4796 124.626 29.5218 125.023 28.8153 125.73C28.1089 126.436 27.7116 127.394 27.7104 128.393V137.209C27.7116 138.208 28.1089 139.166 28.8153 139.872C29.5218 140.578 30.4796 140.976 31.4786 140.977H36.2581C37.2571 140.976 38.2149 140.578 38.9213 139.872C39.6278 139.166 40.0251 138.208 40.0262 137.209V128.393C40.0251 127.394 39.6278 126.436 38.9213 125.73C38.2149 125.023 37.2571 124.626 36.2581 124.625H31.4786Z" fill="#3F3D56"/>
<path d="M119.83 141.27H115.05C113.973 141.269 112.941 140.841 112.18 140.079C111.418 139.318 110.99 138.286 110.989 137.209V128.393C110.99 127.316 111.418 126.284 112.18 125.523C112.941 124.761 113.973 124.333 115.05 124.332H119.83C120.906 124.333 121.939 124.761 122.7 125.523C123.462 126.284 123.89 127.316 123.891 128.393V137.209C123.89 138.286 123.462 139.318 122.7 140.079C121.939 140.841 120.906 141.269 119.83 141.27V141.27Z" fill="#3F3D56"/>
<path d="M116.658 134.212H34.3568C30.6112 134.212 27.564 132.004 27.564 129.289V113.463L31.649 109.161H120.161L123.451 113.472V129.289C123.451 132.004 120.404 134.212 116.658 134.212Z" fill="#F8B219"/>
<path d="M119.777 117.079H32.1183L31.2275 103.419L31.7944 102.022L35.0894 93.9133H116.212L120.668 103.121L119.777 117.079Z" fill="#F8B219"/>
<path d="M120.519 103.15L119.865 113.413H100.579V105.789L119.97 102.018L120.519 103.15Z" fill="white"/>
<path d="M51.0226 105.789V113.413H32.0268L31.3757 103.443L31.9301 102.077L51.0226 105.789Z" fill="white"/>
<path d="M115.723 96.259H35.5774L44.1255 67.7653C44.4742 66.5885 45.1921 65.5551 46.1733 64.8177C47.1546 64.0804 48.3469 63.6783 49.5743 63.6709L102.652 63.1653C103.935 63.1529 105.184 63.57 106.202 64.3502C107.22 65.1304 107.948 66.2288 108.269 67.4705L115.723 96.259Z" fill="#F8B219"/>
<path d="M109.554 93.5649L41.7341 92.7607C41.6484 92.7596 41.5641 92.7385 41.488 92.699C41.4119 92.6595 41.3462 92.6026 41.296 92.5331C41.2459 92.4635 41.2128 92.3831 41.1994 92.2984C41.186 92.2138 41.1926 92.1271 41.2188 92.0454L47.7203 71.7606C47.7558 71.6501 47.8254 71.5536 47.9192 71.4852C48.013 71.4168 48.1261 71.3799 48.2422 71.3799H102.791C102.907 71.3799 103.02 71.4167 103.114 71.4851C103.207 71.5535 103.277 71.6499 103.312 71.7604L110.082 92.8494C110.108 92.9321 110.115 93.02 110.101 93.1057C110.087 93.1914 110.052 93.2725 110.001 93.3424C109.949 93.4123 109.882 93.4689 109.804 93.5076C109.726 93.5462 109.64 93.5659 109.554 93.5649V93.5649Z" fill="white"/>
<path d="M84.7905 66.6425H66.5107C66.3566 66.6425 66.2169 66.4908 66.146 66.2466C66.0754 65.9965 66.0856 65.7305 66.1752 65.4866L67.6826 61.6745C67.7594 61.4802 67.8849 61.3643 68.0181 61.3643H83.2831C83.4164 61.3643 83.5418 61.4802 83.6186 61.6745L85.126 65.4866C85.2156 65.7305 85.2258 65.9965 85.1552 66.2466C85.0843 66.4908 84.9446 66.6425 84.7905 66.6425Z" fill="#A02167"/>
<path d="M35.6278 95.6725H23.6052V93.03C23.6062 92.1757 23.946 91.3567 24.55 90.7527C25.1541 90.1486 25.9731 89.8088 26.8274 89.8079H35.6278V95.6725Z" fill="#F8B219"/>
<path d="M127.703 95.6725H115.68V89.8079H124.481C125.335 89.8088 126.154 90.1486 126.758 90.7527C127.362 91.3567 127.702 92.1757 127.703 93.03V95.6725Z" fill="#F8B219"/>
<path d="M21.9021 136.854L0.318115 144.607L0.56762 145.302L22.1516 137.548L21.9021 136.854Z" fill="#3F3D56"/>
<path d="M128.739 136.868L128.49 137.562L148.789 144.852L149.038 144.158L128.739 136.868Z" fill="#3F3D56"/>
<path d="M78.9199 152.177H75.4019V147.633H78.9199V152.177ZM78.9199 143.088H75.4019V138.544H78.9199V143.088Z" fill="#E6E6E6"/>
<path d="M78.9199 171H75.4019V166.456H78.9199V171ZM78.9199 161.912H75.4019V157.368H78.9199V161.912Z" fill="#E6E6E6"/>
<path d="M75.5478 48.1147C85.1873 48.1147 93.0016 40.3003 93.0016 30.6608C93.0016 21.0214 85.1873 13.207 75.5478 13.207C65.9083 13.207 58.094 21.0214 58.094 30.6608C58.094 40.3003 65.9083 48.1147 75.5478 48.1147Z" fill="#A02167"/>
<path d="M73.8849 38.0285L68.6609 31.3116L71.6988 28.9488L74.1724 32.1291L82.5284 23.3081L85.3227 25.9555L73.8849 38.0285Z" fill="white"/>
<path d="M167.893 144.009H164.019L162.175 129.063H167.893V144.009Z" fill="#FFB8B8"/>
<path d="M168.882 147.765H156.388V147.607C156.389 146.317 156.902 145.081 157.814 144.17C158.726 143.258 159.962 142.745 161.251 142.744H168.882L168.882 147.765Z" fill="#2F2E41"/>
<path d="M217.859 136.666L214.538 138.662L205.26 126.801L210.162 123.856L217.859 136.666Z" fill="#FFB8B8"/>
<path d="M209.931 145.811L209.85 145.676C209.187 144.57 208.99 143.246 209.302 141.995C209.614 140.744 210.409 139.668 211.514 139.003L218.055 135.073L220.641 139.377L209.931 145.811Z" fill="#2F2E41"/>
<path d="M168.9 140.924L168.834 140.924C166.949 140.918 165.066 140.81 163.192 140.599C162.478 140.529 161.704 140.452 160.771 140.376L160.739 140.37C160.102 140.181 160.085 134.21 160.354 113.772C160.493 103.304 160.649 91.4389 160.463 83.8829L160.461 83.8087L160.517 83.7597C167.429 77.748 176.305 75.4945 185.511 77.4144L185.579 77.4286L185.615 77.4886C189.423 83.932 195.173 93.2131 200.733 102.189C213.498 122.793 217.148 128.853 216.748 129.31L216.7 129.347C215.828 129.783 215.174 130.119 214.617 130.404C212.754 131.359 211.983 131.755 207.84 133.461L207.738 133.503L207.663 133.421C194.712 119.229 183.934 103.376 177.267 88.7207C176.488 93.7239 175.543 100.257 174.543 107.16C171.671 127.01 169.729 140.081 168.947 140.877L168.9 140.924Z" fill="#2F2E41"/>
<path d="M189.017 20.5075C190.322 15.1219 191.427 9.04751 188.967 4.0873C187.26 0.645664 180.946 -0.513328 177.326 0.726558C173.707 1.96644 171.09 5.33035 169.939 8.99806C168.788 12.6658 168.922 16.618 169.423 20.4309C176.08 20.303 182.737 20.1751 189.017 20.5075Z" fill="#2F2E41"/>
<path d="M177.783 20.5062C182.07 20.5062 185.546 17.0308 185.546 12.7437C185.546 8.45659 182.07 4.9812 177.783 4.9812C173.496 4.9812 170.021 8.45659 170.021 12.7437C170.021 17.0308 173.496 20.5062 177.783 20.5062Z" fill="#FFB8B8"/>
<path d="M187.273 11.1445C187.298 9.83801 187.06 8.53992 186.573 7.32734C186.086 6.11475 185.36 5.01241 184.439 4.08581C183.517 3.15922 182.419 2.42727 181.209 1.93346C180 1.43966 178.703 1.19407 177.396 1.2113C176.09 1.22852 174.8 1.50821 173.604 2.03373C172.407 2.55926 171.329 3.3199 170.432 4.27046C169.536 5.22102 168.839 6.34211 168.384 7.56711C167.93 8.79211 167.726 10.096 167.785 11.4014C174.429 11.4155 181.073 11.4296 187.273 11.1445Z" fill="#2F2E41"/>
<path d="M172.39 85.4101C180.113 85.3756 187.784 86.6601 195.075 89.2081C195.329 76.972 191.116 64.7132 183.499 55.5423L183.442 55.4738L183.471 55.3897C185.506 49.5112 187.609 43.435 189.488 37.3888L189.459 37.2873C188.141 32.6023 185.313 27.868 180.812 22.8137C180.324 22.3079 179.661 22.0066 178.959 21.9711C178.257 21.9355 177.568 22.1683 177.031 22.6222C169.031 29.9561 164.681 40.9447 165.678 51.2999L165.681 51.3303L165.673 51.3598C162.148 63.2997 160.869 69.4325 159.74 74.8433C158.917 78.7903 158.204 82.2081 156.772 87.0914C161.903 85.975 167.139 85.4114 172.39 85.4101V85.4101Z" fill="#3F3D56"/>
<path opacity="0.1" d="M183.76 47.6658L172.295 72.6263L165.745 65.9965L183.76 47.6658Z" fill="black"/>
<path d="M158.026 61.5297L158.825 63.0829C158.833 63.0973 158.834 63.114 158.829 63.1294C158.824 63.1447 158.813 63.1575 158.799 63.1649L158.761 63.1848L162.925 71.2761C163.04 71.5 163.062 71.7605 162.985 72.0003C162.908 72.2401 162.739 72.4396 162.515 72.5549L157.459 75.1569C157.348 75.2139 157.227 75.2486 157.103 75.2588C156.979 75.2691 156.854 75.2548 156.735 75.2168C156.616 75.1787 156.506 75.1176 156.411 75.037C156.316 74.9565 156.238 74.8579 156.181 74.7471L156.181 74.747L152.162 66.9395L152.135 66.9538C152.124 66.9591 152.113 66.9601 152.102 66.9566C152.091 66.9532 152.082 66.9456 152.077 66.9355L151.622 66.0515C151.619 66.0464 151.618 66.041 151.617 66.0353C151.617 66.0297 151.617 66.024 151.619 66.0186C151.621 66.0132 151.624 66.0082 151.627 66.0039C151.631 65.9996 151.635 65.996 151.64 65.9935V65.9935L151.668 65.9791L151.497 65.6461L151.469 65.6606C151.458 65.666 151.446 65.667 151.434 65.6633C151.423 65.6597 151.413 65.6516 151.408 65.641L150.959 64.7691C150.954 64.7585 150.953 64.7461 150.957 64.7348C150.96 64.7234 150.968 64.714 150.979 64.7085L151.007 64.694L150.773 64.2395L150.744 64.2542C150.735 64.2591 150.724 64.26 150.714 64.2568C150.704 64.2536 150.695 64.2465 150.691 64.2371L150.691 64.237L150.446 63.7612C150.441 63.7518 150.44 63.7408 150.443 63.7307C150.446 63.7206 150.453 63.7121 150.463 63.7072L150.491 63.6925L149.996 62.7291C149.88 62.5052 149.859 62.2448 149.936 62.005C150.012 61.7653 150.181 61.5659 150.405 61.4507L155.461 58.8487C155.685 58.7334 155.945 58.7119 156.185 58.7887C156.425 58.8655 156.624 59.0343 156.74 59.2582L157.905 61.5232L157.944 61.5034C157.958 61.496 157.975 61.4947 157.99 61.4996C158.006 61.5045 158.019 61.5153 158.026 61.5297V61.5297Z" fill="#3F3D56"/>
<path d="M156.421 59.6335L162.557 71.5544C162.63 71.6965 162.643 71.8617 162.594 72.0138C162.546 72.1659 162.438 72.2924 162.296 72.3655L157.457 74.8563C157.315 74.9295 157.15 74.9434 156.998 74.895C156.846 74.8466 156.72 74.7398 156.646 74.5982L156.646 74.5965L150.51 62.6756C150.474 62.6052 150.452 62.5284 150.446 62.4496C150.439 62.3708 150.448 62.2914 150.472 62.2161C150.496 62.1407 150.535 62.0709 150.586 62.0105C150.637 61.9502 150.7 61.9005 150.77 61.8643L150.77 61.8642L151.495 61.4915L151.543 61.5844C151.572 61.6423 151.613 61.6938 151.663 61.7359C151.713 61.778 151.77 61.8099 151.832 61.8298C151.894 61.8497 151.96 61.8571 152.024 61.8518C152.089 61.8464 152.153 61.8283 152.211 61.7985L154.672 60.5317C154.789 60.4715 154.877 60.3673 154.917 60.242C154.957 60.1168 154.946 59.9807 154.886 59.8637L154.838 59.7707L155.61 59.3735C155.752 59.3004 155.917 59.2866 156.069 59.3353C156.221 59.384 156.348 59.4911 156.421 59.6331L156.421 59.6335Z" fill="#A02167"/>
<path d="M158.2 74.1971C158.663 74.1648 159.114 74.0313 159.52 73.806C159.926 73.5807 160.278 73.269 160.551 72.893C160.824 72.5169 161.011 72.0856 161.099 71.6294C161.187 71.1732 161.174 70.7032 161.061 70.2526L170.508 64.0632L165.121 61.7356L156.976 67.9701C156.231 68.2103 155.601 68.7153 155.204 69.3894C154.807 70.0634 154.671 70.8596 154.822 71.6272C154.973 72.3947 155.4 73.0803 156.022 73.5539C156.645 74.0276 157.42 74.2564 158.2 74.1971V74.1971Z" fill="#FFB8B8"/>
<path d="M167.289 69.7381L167.17 69.6538C164.922 67.999 162.426 66.2878 160.012 64.6328L159.867 64.5334L159.981 64.3998C165.133 58.372 170.291 52.0759 175.28 45.9851C175.276 45.9754 175.273 45.9683 175.27 45.9632L175.317 45.9393L175.337 45.9151L175.348 45.9239L175.378 45.9086L175.242 45.9191L173.704 33.8611C172.315 31.9665 172.049 28.2049 173.869 25.5792C175.755 22.8591 179.743 21.9488 182.405 23.6302C183.102 24.0984 183.685 24.7174 184.111 25.4414C184.537 26.1654 184.794 26.9758 184.864 27.8128C184.963 28.5584 184.894 29.3167 184.663 30.0324C184.431 30.748 184.042 31.4028 183.525 31.9491C184.179 38.3304 184.204 44.0342 184.228 49.5515L184.228 49.6066L184.194 49.652C178.876 56.4085 173.034 63.129 167.385 69.6282L167.289 69.7381Z" fill="#3F3D56"/>
<path d="M222.593 148.245H153.174C153.097 148.245 153.023 148.206 152.969 148.137C152.914 148.068 152.884 147.974 152.884 147.876C152.884 147.778 152.914 147.684 152.969 147.615C153.023 147.546 153.097 147.507 153.174 147.507H222.593C222.67 147.507 222.744 147.546 222.799 147.615C222.853 147.684 222.884 147.778 222.884 147.876C222.884 147.974 222.853 148.068 222.799 148.137C222.744 148.206 222.67 148.245 222.593 148.245Z" fill="#3F3D56"/>
</svg>
