<svg width="200" height="183" viewBox="0 0 200 183" fill="none" xmlns="http://www.w3.org/2000/svg">
<path d="M68.5729 61.9522C69.3641 67.3097 68.5482 72.7815 66.2284 77.6751C63.9086 82.5686 60.1892 86.664 55.5409 89.4429C50.8926 92.2217 45.5244 93.5592 40.1157 93.2859C34.707 93.0126 29.501 91.141 25.1565 87.9077C20.8119 84.6745 17.5242 80.2251 15.7094 75.1227C13.8947 70.0202 13.6344 64.4941 14.9615 59.2436C16.2887 53.9932 19.1436 49.2544 23.165 45.6272C27.1864 41.9999 32.1935 39.6472 37.5526 38.8668C44.7274 37.8147 52.0264 39.6559 57.8438 43.9852C63.6612 48.3145 67.5205 54.7774 68.5729 61.9522V61.9522Z" fill="#F5F5F5"/>
<path d="M62.1306 62.8917C62.7326 66.9742 62.1099 71.1435 60.3414 74.8719C58.5729 78.6003 55.7381 81.7203 52.1957 83.837C48.6533 85.9537 44.5626 86.9719 40.4413 86.7628C36.32 86.5536 32.3534 85.1266 29.0434 82.6623C25.7335 80.1979 23.229 76.807 21.847 72.9187C20.4649 69.0304 20.2675 64.8195 21.2796 60.819C22.2917 56.8184 24.4678 53.208 27.5326 50.4447C30.5974 47.6814 34.4131 45.8894 38.4967 45.2956C41.2039 44.8989 43.9628 45.0393 46.6157 45.709C49.2687 46.3786 51.7637 47.5643 53.9584 49.1983C56.1531 50.8323 58.0044 52.8826 59.4066 55.2321C60.8088 57.5817 61.7344 60.1844 62.1306 62.8917V62.8917Z" fill="#EBEBEB"/>
<path d="M62.0271 62.2443C61.9057 62.2443 61.6855 61.3721 61.128 59.8436C60.3425 57.691 59.2295 55.6727 57.8281 53.8598C56.8607 52.6261 55.7618 51.5016 54.5508 50.506C53.1584 49.3761 51.6262 48.4302 49.9921 47.6917C49.112 47.2884 48.2028 46.9518 47.2722 46.6846C46.3058 46.3984 45.3181 46.1894 44.3186 46.0597C43.2865 45.9166 42.2448 45.8549 41.203 45.8754C40.1285 45.9014 39.0572 46.0051 37.9976 46.1856C36.9413 46.3815 35.9002 46.652 34.8821 46.9949C33.8942 47.3362 32.9338 47.7525 32.0093 48.2402C31.1166 48.7103 30.2614 49.2483 29.4513 49.8496C28.6704 50.4193 27.934 51.0475 27.2484 51.7288C25.9688 52.9797 24.8566 54.3911 23.9395 55.9278C23.1439 57.2784 22.4986 58.7121 22.0154 60.2032C21.3242 62.3842 20.9739 64.6589 20.9769 66.9468C20.9769 68.5787 21.0803 69.4913 20.9769 69.5138C20.8735 69.5363 20.5723 68.6506 20.379 66.9782C20.1272 64.5968 20.3223 62.1893 20.9544 59.8795C21.3883 58.2738 22.0116 56.7255 22.8111 55.2669C23.7374 53.5869 24.8868 52.0398 26.2279 50.6678C26.9496 49.9205 27.7298 49.232 28.5611 48.6088C29.4213 47.9468 30.3339 47.3559 31.29 46.842C32.2826 46.3121 33.3153 45.8612 34.3786 45.4933C35.4736 45.1088 36.5962 44.8082 37.7369 44.5941C38.8794 44.3987 40.0351 44.289 41.194 44.266C42.319 44.2504 43.4435 44.324 44.5568 44.4863C45.6321 44.6421 46.6934 44.8826 47.7308 45.2056C48.7257 45.5043 49.6954 45.8816 50.6305 46.334C52.3628 47.1617 53.9749 48.2204 55.4229 49.481C56.6756 50.5751 57.7938 51.8141 58.7543 53.1719C60.1426 55.1242 61.155 57.3181 61.7394 59.6413C62.1305 61.2957 62.1305 62.2218 62.0271 62.2443Z" fill="#E0E0E0"/>
<path d="M45.6089 77.8625L46.1843 81.459L42.9834 81.9715L42.4214 78.4829C39.2205 78.7976 36.0196 78.2896 34.037 77.1971L35.1564 73.0116C37.2017 73.9981 39.4677 74.438 41.7336 74.2884L40.8749 68.9385C37.1839 68.6463 33.0209 68.0933 32.2881 63.5122C31.7441 60.1179 33.7447 56.8091 38.7125 55.4199L38.1415 51.8638L41.347 51.3513L41.9044 54.84C44.2154 54.5992 46.5505 54.9073 48.7199 55.7391L47.7488 59.9381C46.1042 59.2969 44.3479 58.9912 42.5833 59.039L43.4554 64.4833C47.1419 64.7485 51.242 65.306 51.9658 69.8242C52.5143 73.1779 50.5407 76.4508 45.6089 77.8625ZM40.1421 64.218L39.4138 59.6684C37.7774 60.3247 37.2514 61.3632 37.4222 62.4197C37.5931 63.4762 38.6585 64.0202 40.1421 64.218ZM46.8857 71.056C46.7058 69.932 45.6808 69.4735 44.2242 69.2127L44.9345 73.6365C46.4811 73.0116 47.052 72.081 46.8857 71.056Z" fill="#E0E0E0"/>
<path d="M167.955 37.3472C170.003 40.708 171.008 44.6009 170.843 48.5331C170.677 52.4653 169.349 56.2601 167.026 59.437C164.703 62.6139 161.489 65.0302 157.792 66.3801C154.095 67.7299 150.081 67.9525 146.258 67.0197C142.434 66.087 138.973 64.0408 136.313 61.1402C133.653 58.2396 131.913 54.615 131.314 50.7252C130.715 46.8354 131.283 42.8553 132.947 39.2886C134.611 35.722 137.296 32.7292 140.661 30.6891C142.891 29.3337 145.365 28.4308 147.943 28.0319C150.521 27.633 153.153 27.7459 155.687 28.3642C158.222 28.9825 160.61 30.0941 162.715 31.6354C164.82 33.1767 166.6 35.1176 167.955 37.3472V37.3472Z" fill="#F5F5F5"/>
<path d="M163.909 39.7974C165.471 42.3587 166.237 45.3258 166.112 48.3231C165.987 51.3205 164.975 54.2132 163.205 56.6352C161.434 59.0572 158.985 60.8995 156.168 61.9288C153.35 62.9582 150.29 63.1284 147.375 62.4179C144.461 61.7073 141.822 60.148 139.795 57.9373C137.767 55.7266 136.44 52.9639 135.983 49.999C135.526 47.034 135.959 44.0002 137.227 41.2814C138.496 38.5627 140.542 36.2814 143.107 34.7262C146.539 32.6419 150.657 32.0053 154.558 32.9562C158.458 33.9071 161.822 36.3677 163.909 39.7974V39.7974Z" fill="#EBEBEB"/>
<path d="M163.662 39.3928C163.585 39.4467 163.185 38.9117 162.371 38.0441C161.238 36.8255 159.921 35.7911 158.469 34.978C157.472 34.4245 156.416 33.9827 155.322 33.6608C154.07 33.2997 152.777 33.1003 151.474 33.0673C150.771 33.0492 150.068 33.0823 149.37 33.1662C148.642 33.2495 147.922 33.3893 147.216 33.5843C146.484 33.7805 145.768 34.0345 145.076 34.3441C143.648 34.9836 142.328 35.8422 141.165 36.8887C140.601 37.3956 140.078 37.9457 139.601 38.5341C138.69 39.646 137.949 40.8868 137.402 42.2161C136.9 43.4192 136.557 44.6826 136.382 45.9745C136.232 47.1027 136.207 48.2439 136.305 49.3777C136.46 51.0345 136.871 52.6573 137.524 54.1881C137.973 55.2806 138.315 55.865 138.238 55.9145C138.162 55.9639 137.721 55.4649 137.119 54.3904C136.276 52.8677 135.724 51.2014 135.491 49.4766C135.327 48.2847 135.304 47.0774 135.424 45.8801C135.649 43.7371 136.316 41.6642 137.384 39.7929C137.782 39.1068 138.233 38.4529 138.733 37.8373C139.241 37.1926 139.802 36.5912 140.41 36.039C141.654 34.8983 143.079 33.9716 144.627 33.2966C145.375 32.9659 146.15 32.6967 146.942 32.4919C147.704 32.2893 148.482 32.148 149.266 32.0693C150.013 31.9891 150.764 31.968 151.514 32.0063C154.123 32.107 156.662 32.8814 158.883 34.2542C160.365 35.1658 161.664 36.3459 162.713 37.7339C163.446 38.7364 163.733 39.3568 163.662 39.3928Z" fill="#E0E0E0"/>
<path d="M157.102 54.4983L158.5 56.7462L156.504 57.996L155.156 55.8201C153.101 56.935 150.817 57.506 149.176 57.3351L148.749 54.1881C150.399 54.2707 152.041 53.9221 153.515 53.1766L151.424 49.8408C148.871 50.6905 145.93 51.5042 144.141 48.6449C142.815 46.5275 143.215 43.7446 146.146 41.4114L144.757 39.1905L146.758 37.9407L148.106 40.1211C149.592 39.306 151.25 38.8574 152.944 38.8128L153.483 41.8969C152.201 41.9395 150.941 42.2359 149.774 42.7691L151.901 46.1678C154.445 45.2956 157.345 44.5134 159.094 47.3277C160.393 49.4047 160.002 52.1561 157.102 54.4983ZM149.572 46.9366L147.796 44.0998C146.897 44.9989 146.83 45.8441 147.243 46.505C147.657 47.1658 148.52 47.1883 149.572 46.9366ZM156.023 49.598C155.574 48.9012 154.769 48.8832 153.721 49.1215L155.448 51.8773C156.311 51.0142 156.423 50.2229 156.023 49.58V49.598Z" fill="#E0E0E0"/>
<path d="M141.174 18.9328C139.462 20.018 137.467 20.5711 135.441 20.5219C133.415 20.4727 131.45 19.8235 129.793 18.6566C128.136 17.4896 126.862 15.8573 126.134 13.9662C125.405 12.0752 125.254 10.0105 125.699 8.03343C126.144 6.05637 127.166 4.25587 128.635 2.85985C130.104 1.46382 131.955 0.535043 133.952 0.191076C135.949 -0.152891 138.003 0.103419 139.855 0.927563C141.706 1.75171 143.271 3.10663 144.352 4.82082C145.07 5.95609 145.558 7.22168 145.787 8.54532C146.016 9.86897 145.981 11.2247 145.686 12.5352C145.391 13.8456 144.841 15.0851 144.067 16.1828C143.292 17.2805 142.309 18.215 141.174 18.9328V18.9328Z" fill="#F5F5F5"/>
<path d="M139.875 16.8737C138.57 17.7001 137.05 18.1209 135.506 18.083C133.963 18.0451 132.465 17.5502 131.203 16.6608C129.94 15.7713 128.97 14.5274 128.415 13.0865C127.86 11.6456 127.745 10.0724 128.084 8.56593C128.423 7.0595 129.202 5.68758 130.321 4.62379C131.44 3.55999 132.85 2.85213 134.372 2.58979C135.894 2.32744 137.459 2.5224 138.87 3.14999C140.281 3.77758 141.474 4.8096 142.298 6.11544C142.845 6.98086 143.217 7.94568 143.392 8.9548C143.566 9.96391 143.54 10.9975 143.315 11.9966C143.09 12.9957 142.671 13.9406 142.08 14.7774C141.49 15.6143 140.74 16.3266 139.875 16.8737V16.8737Z" fill="#EBEBEB"/>
<path d="M140.077 16.7433C140.055 16.7028 140.324 16.4915 140.765 16.0645C141.381 15.4694 141.901 14.7824 142.307 14.0279C142.582 13.5094 142.799 12.9621 142.954 12.396C143.13 11.7496 143.221 11.0831 143.224 10.4134C143.23 10.051 143.208 9.68868 143.157 9.32989C143.107 8.95586 143.029 8.58615 142.923 8.22395C142.813 7.84978 142.675 7.48456 142.509 7.13149C142.336 6.76754 142.138 6.41603 141.916 6.0795C141.689 5.7443 141.438 5.42579 141.165 5.12641C140.899 4.84172 140.612 4.57725 140.306 4.33517C140.01 4.10135 139.696 3.89092 139.367 3.70577C139.054 3.53092 138.728 3.38062 138.391 3.2562C137.765 3.0131 137.111 2.8485 136.445 2.76617C135.862 2.70099 135.274 2.70099 134.691 2.76617C133.839 2.85966 133.006 3.08566 132.223 3.43603C131.938 3.59534 131.637 3.72346 131.324 3.81816C131.539 3.56914 131.804 3.36842 132.102 3.22923C132.877 2.77707 133.729 2.47223 134.615 2.33009C135.231 2.23537 135.855 2.21424 136.476 2.26715C137.19 2.32227 137.893 2.47349 138.567 2.71672C138.932 2.85059 139.287 3.01293 139.628 3.20225C139.983 3.39651 140.323 3.61901 140.644 3.86762C140.978 4.12508 141.292 4.40763 141.583 4.71281C141.876 5.03251 142.146 5.37198 142.392 5.72884C142.642 6.09481 142.863 6.4796 143.053 6.87974C143.235 7.26258 143.385 7.6595 143.503 8.0666C143.615 8.45658 143.694 8.85502 143.741 9.25796C143.788 9.64423 143.806 10.0334 143.795 10.4223C143.76 11.7678 143.381 13.0818 142.694 14.2392C142.237 15.0097 141.641 15.6881 140.936 16.2398C140.689 16.4677 140.396 16.6394 140.077 16.7433V16.7433Z" fill="#E0E0E0"/>
<path d="M132.263 13.5021L131.122 14.2439L130.465 13.2189L131.571 12.4995C131.011 11.5776 130.723 10.5164 130.739 9.43797L132.344 9.18621C132.318 10.0362 132.512 10.8785 132.906 11.6319L134.583 10.5214C134.134 9.21319 133.684 7.70713 135.132 6.75854C136.211 6.05721 137.645 6.23704 138.877 7.72511L140.005 6.99231L140.666 8.00834L139.56 8.72316C139.992 9.47768 140.24 10.3232 140.284 11.1913L138.701 11.497C138.663 10.8465 138.498 10.2098 138.216 9.6223L136.485 10.7507C136.957 12.05 137.384 13.5381 135.954 14.4687C134.893 15.1475 133.477 14.9722 132.263 13.5021ZM136.094 9.55486L137.541 8.61526C137.069 8.16569 136.642 8.13422 136.296 8.35451C135.95 8.5748 135.927 9.01538 136.076 9.55486H136.094ZM134.781 12.9042C135.141 12.6704 135.141 12.2523 135.01 11.7128L133.603 12.6119C134.03 13.0615 134.439 13.1155 134.763 12.9042H134.781Z" fill="#E0E0E0"/>
<path d="M199.789 182.005C199.789 182.073 155.061 182.122 99.899 182.122C44.7367 182.122 0 182.073 0 182.005C0 181.938 44.7187 181.888 99.899 181.888C155.079 181.888 199.789 181.942 199.789 182.005Z" fill="#263238"/>
<path d="M26.7315 168.203C27.2395 166.239 25.9492 164.261 24.4836 162.836C23.018 161.41 21.3096 160.138 20.5589 158.245C19.3405 155.188 20.977 151.232 18.8999 148.683C17.6771 147.182 15.4832 146.678 14.4042 145.087C13.8333 144.246 13.649 143.212 13.4242 142.223C12.2762 137.142 9.78239 132.463 6.20409 128.677C5.96532 133.199 6.94666 137.702 9.04537 141.715C9.88607 143.315 10.9201 144.862 11.1988 146.66C11.6484 149.564 10.0299 152.558 10.7492 155.409C11.563 158.673 15.2449 160.857 15.4023 164.216C15.5507 167.057 13.0735 169.548 13.2578 172.384C13.4086 173.591 13.8414 174.744 14.5211 175.752C16.724 179.42 19.9385 181.933 24.8163 181.852L30.8046 182.059L26.7315 168.203Z" fill="#F8B219"/>
<g opacity="0.3">
<path opacity="0.3" d="M26.7315 168.203C27.2395 166.239 25.9492 164.261 24.4836 162.836C23.018 161.41 21.3096 160.138 20.5589 158.245C19.3405 155.188 20.977 151.232 18.8999 148.683C17.6771 147.182 15.4832 146.678 14.4042 145.087C13.8333 144.246 13.649 143.212 13.4242 142.223C12.2762 137.142 9.78239 132.463 6.20409 128.677C5.96532 133.199 6.94666 137.702 9.04537 141.715C9.88607 143.315 10.9201 144.862 11.1988 146.66C11.6484 149.564 10.0299 152.558 10.7492 155.409C11.563 158.673 15.2449 160.857 15.4023 164.216C15.5507 167.057 13.0735 169.548 13.2578 172.384C13.4086 173.591 13.8414 174.744 14.5211 175.752C16.724 179.42 19.9385 181.933 24.8163 181.852L30.8046 182.059L26.7315 168.203Z" fill="black"/>
</g>
<path d="M32.0095 182.019C32.5571 182.104 33.1154 182.094 33.6594 181.987C34.321 181.886 34.9713 181.722 35.6015 181.497C36.4708 181.195 37.2836 180.749 38.0067 180.18C38.4407 179.83 38.7806 179.377 38.9958 178.863C39.178 178.281 39.2719 177.674 39.2745 177.064C39.288 176.416 39.336 175.77 39.4184 175.127C39.5334 174.444 39.7808 173.79 40.1467 173.203C40.8525 171.962 42.0259 170.788 42.3945 169.103C42.7632 167.417 42.5114 165.654 42.2327 163.856C41.954 162.058 41.6842 160.102 42.3721 158.232C43.0599 156.362 44.3277 154.667 44.9841 152.558C45.6404 150.45 45.3347 148.13 45.4696 145.869C45.5139 144.721 45.7796 143.593 46.2519 142.546C46.7374 141.485 47.4072 140.487 47.9332 139.368C48.9942 137.12 49.1831 134.558 49.4753 132.053C49.6161 130.789 49.766 129.513 49.9248 128.228C50.0153 126.932 50.2383 125.648 50.5902 124.397C50.9944 123.135 51.4733 121.898 52.0243 120.693C52.3073 120.067 52.5388 119.419 52.7167 118.755C52.8183 118.073 52.8828 117.386 52.91 116.696C52.9764 115.313 52.9238 113.926 52.7526 112.551C52.5908 111.171 52.339 109.8 52.1907 108.415L52.1637 108.177L52.1322 107.903L51.8895 108.024C50.6202 108.671 49.5171 109.602 48.666 110.744C47.8357 111.861 47.1682 113.09 46.6834 114.394C45.6854 116.966 45.3347 119.663 44.8222 122.235C44.3097 124.806 43.6983 127.346 42.3496 129.486C41.6977 130.552 40.902 131.523 40.2051 132.566C39.4645 133.58 38.9578 134.745 38.7216 135.978C38.3664 138.509 39.7601 140.735 39.4723 142.978C39.3345 144.08 38.962 145.139 38.3799 146.085C37.8359 147.042 37.1975 147.928 36.5816 148.822C35.9625 149.692 35.4238 150.616 34.9721 151.583C34.5506 152.532 34.3025 153.549 34.2393 154.586C34.091 156.605 34.3787 158.52 34.2393 160.327C34.074 162.048 33.5731 163.721 32.7648 165.25C32.0364 166.72 31.2317 168.055 30.5574 169.345C30.2202 169.993 29.9055 170.622 29.6582 171.252C29.4188 171.864 29.2426 172.5 29.1322 173.149C28.9556 174.28 28.942 175.43 29.0918 176.565C29.2513 178.144 29.8458 179.647 30.8091 180.908C30.9549 181.096 31.1158 181.272 31.2902 181.434C31.4106 181.558 31.5431 181.67 31.6858 181.767C31.9061 181.933 32.0275 182.005 32.0275 182.005C31.598 181.669 31.2088 181.284 30.8676 180.859C29.9433 179.591 29.3808 178.096 29.2401 176.534C29.1079 175.412 29.1336 174.277 29.3165 173.162C29.4318 172.53 29.6095 171.911 29.847 171.314C30.1033 170.699 30.418 170.069 30.7462 169.431C31.4295 168.154 32.2433 166.828 32.994 165.344C33.8298 163.792 34.3493 162.09 34.5226 160.336C34.6799 158.488 34.4057 156.569 34.5585 154.595C34.6228 153.593 34.8664 152.611 35.2778 151.695C35.7241 150.749 36.2568 149.846 36.8693 148.998C37.4717 148.099 38.1191 147.222 38.6676 146.242C39.2763 145.259 39.6672 144.157 39.814 143.01C40.1017 140.618 38.7171 138.379 39.0767 136.028C39.3062 134.847 39.7961 133.732 40.5108 132.764C41.1942 131.739 41.9944 130.768 42.6688 129.675C44.0175 127.472 44.6873 124.896 45.1864 122.311C45.6854 119.726 46.054 117.056 47.0386 114.534C47.5095 113.264 48.1589 112.068 48.9673 110.982C49.7814 109.886 50.8386 108.993 52.0558 108.375L51.7771 108.222L51.804 108.465C51.9569 109.863 52.2042 111.238 52.366 112.601C52.5348 113.954 52.5875 115.32 52.5234 116.683C52.4992 117.352 52.4377 118.02 52.339 118.683C52.1681 119.323 51.944 119.947 51.6692 120.549C51.1157 121.768 50.6338 123.019 50.2261 124.294C49.8662 125.565 49.6402 126.869 49.5517 128.187C49.4078 129.479 49.267 130.756 49.1291 132.018C48.8414 134.531 48.6526 137.048 47.632 139.211C47.124 140.294 46.4542 141.297 45.9551 142.394C45.4676 143.479 45.1944 144.648 45.1504 145.837C45.02 148.148 45.3212 150.409 44.7008 152.455C44.0804 154.501 42.7767 156.191 42.1158 158.124C41.4549 160.057 41.7022 162.098 41.9854 163.888C42.2687 165.677 42.5654 167.444 42.1787 169.04C41.7921 170.636 40.6952 171.809 39.9759 173.086C39.5996 173.697 39.3475 174.377 39.2341 175.086C39.1538 175.737 39.1118 176.391 39.1082 177.046C39.1074 177.636 39.0211 178.222 38.8519 178.786C38.6517 179.277 38.3318 179.71 37.9213 180.045C37.2175 180.611 36.4265 181.059 35.5791 181.371C34.9569 181.604 34.3141 181.777 33.6594 181.888C33.2572 181.961 32.8498 182.002 32.4411 182.01C32.1713 182.014 32.0095 182.019 32.0095 182.019Z" fill="#263238"/>
<path d="M50.9452 111.481C50.9192 111.54 50.8996 111.602 50.8868 111.666C50.8508 111.809 50.8104 111.985 50.7564 112.205C50.6395 112.677 50.4957 113.387 50.2709 114.278C50.0461 115.168 49.4931 116.166 49.0301 117.402C48.4834 118.793 48.0077 120.211 47.6049 121.65C47.1554 123.246 46.7418 125.022 46.3192 126.919C45.8966 128.817 45.447 130.849 44.404 132.764C43.914 133.735 43.361 134.719 42.9204 135.798C42.4893 136.902 42.2008 138.056 42.0617 139.233C41.7595 141.669 41.3273 144.086 40.767 146.476C39.5666 151.385 38.4247 156.056 37.3817 160.313L34.5449 171.598C33.7582 174.79 33.1153 177.384 32.6657 179.209C32.4589 180.108 32.2926 180.782 32.1712 181.286C32.1262 181.506 32.0858 181.686 32.0543 181.83C32.0364 181.89 32.0273 181.952 32.0273 182.014C32.0559 181.958 32.0785 181.9 32.0948 181.839L32.2476 181.304C32.387 180.805 32.5713 180.117 32.8096 179.249C33.2906 177.424 33.974 174.844 34.8102 171.661L37.7279 160.399C38.7799 156.141 39.9308 151.47 41.1446 146.561C41.7032 144.161 42.1339 141.733 42.4349 139.287C42.567 138.146 42.8403 137.025 43.2486 135.951C43.6712 134.904 44.2152 133.924 44.7052 132.939C45.7617 130.988 46.1978 128.893 46.6204 127.005C47.043 125.117 47.4161 123.332 47.8522 121.736C48.2883 120.14 48.7514 118.724 49.2009 117.496C49.6505 116.269 50.1675 115.249 50.3878 114.327C50.6081 113.405 50.7115 112.713 50.8059 112.232C50.8418 112.012 50.8733 111.832 50.9003 111.688C50.9234 111.621 50.9385 111.552 50.9452 111.481Z" fill="#263238"/>
<path d="M33.0839 182.059C36.9952 179.735 38.1191 172.856 36.4872 168.608C34.8552 164.36 31.9915 160.48 31.5419 155.953C31.2002 152.473 32.3421 148.899 31.5419 145.496C30.4539 140.897 25.9717 137.349 26.0257 132.629C26.0526 129.981 27.5587 127.49 27.4418 124.842C27.2935 121.601 24.8028 119.025 23.2608 116.166C20.8961 111.791 20.7432 106.617 19.934 101.712C19.1248 96.8072 17.2366 91.5517 12.9117 89.124C12.2688 93.287 11.1719 96.1418 11.518 101.784C11.6394 103.811 13.9952 107.687 14.3144 112.124C14.5077 114.781 14.6381 117.438 14.7999 120.095C14.9573 122.68 15.1236 125.31 16.0542 127.738C16.7645 129.594 17.9019 131.276 18.4324 133.191C19.4215 136.787 18.1177 140.69 18.918 144.336C19.5968 147.424 21.7368 150.086 22.1729 153.219C22.7888 157.621 19.925 162.211 21.3951 166.392C22.1189 168.478 23.8363 170.15 24.3218 172.299C24.6994 173.971 24.2858 175.738 24.6275 177.415C25.1805 180.113 30.3325 182.216 33.0839 182.046" fill="#F8B219"/>
<path d="M13.9861 93.2737C13.9791 93.353 13.9791 93.4327 13.9861 93.512C13.9861 93.6873 14.0401 93.9121 14.076 94.1953C14.1659 94.7977 14.2648 95.6789 14.4671 96.8208C14.6695 97.9627 15.2809 99.2619 15.7529 100.822C16.225 102.382 16.7465 104.171 17.187 106.176C17.6276 108.181 18.0053 110.407 18.3964 112.794C18.7875 115.181 19.2191 117.789 20.4015 120.279C20.9499 121.529 21.5659 122.779 22.0289 124.114C22.4803 125.483 22.7567 126.902 22.8516 128.34C23.0713 131.395 23.4555 134.435 24.0025 137.448C25.1984 143.621 26.3403 149.497 27.3788 154.851C28.4173 160.206 29.4603 164.98 30.2875 169.022C31.1147 173.063 31.8071 176.291 32.2836 178.571C32.5219 179.677 32.7107 180.544 32.8456 181.165C32.9085 181.443 32.9625 181.664 33.0029 181.834C33.0159 181.911 33.037 181.987 33.0659 182.059C33.0688 181.98 33.0597 181.902 33.0389 181.825C33.0074 181.655 32.9714 181.43 32.922 181.147C32.8051 180.526 32.6388 179.654 32.432 178.539C31.9824 176.255 31.344 172.991 30.5573 168.968C29.7705 164.944 28.7904 160.116 27.725 154.779L24.3802 137.385C23.841 134.382 23.4629 131.352 23.2473 128.309C23.1457 126.841 22.8587 125.393 22.3931 123.997C21.9165 122.649 21.2961 121.381 20.7431 120.14C19.5653 117.69 19.1517 115.127 18.7291 112.745C18.3065 110.362 17.9333 108.132 17.4703 106.122C17.0072 104.113 16.4947 102.315 15.9732 100.759C15.4517 99.2035 14.8673 97.9132 14.6245 96.7938C14.3817 95.6744 14.2738 94.7797 14.1749 94.1863C14.121 93.9076 14.0805 93.6828 14.049 93.5075C14.0387 93.427 14.0175 93.3484 13.9861 93.2737Z" fill="#263238"/>
<path d="M184.414 155.283C185.021 155.572 185.564 155.982 186.01 156.486C186.456 156.991 186.795 157.58 187.008 158.218C187.424 159.501 187.542 160.862 187.354 162.197C187.062 164.782 185.592 167.385 184.014 169.449C181.838 167.552 181.316 164.243 181.19 162.548C180.957 159.85 182.157 154.883 184.414 155.283" fill="#F8B219"/>
<path d="M186.536 173.715C186.39 172.979 186.442 172.217 186.684 171.507C186.926 170.797 187.351 170.163 187.916 169.669C188.491 169.185 189.157 168.82 189.875 168.595C190.593 168.37 191.348 168.291 192.097 168.361C192.444 168.357 192.788 168.428 193.104 168.57C193.421 168.713 193.703 168.922 193.931 169.183C194.102 169.461 194.195 169.779 194.2 170.105C194.206 170.431 194.124 170.752 193.963 171.036C193.633 171.599 193.16 172.064 192.591 172.384C190.708 173.567 188.667 174.367 186.536 173.733" fill="#F8B219"/>
<path d="M183.748 181.619C183.759 181.44 183.784 181.263 183.825 181.088C183.892 180.715 183.982 180.234 184.09 179.654C184.33 178.054 184.83 176.504 185.569 175.064C186.334 173.628 187.469 172.422 188.855 171.571C189.279 171.318 189.732 171.119 190.204 170.977C190.331 170.937 190.46 170.904 190.591 170.878C190.681 170.878 190.73 170.851 190.73 170.878C189.654 171.226 188.659 171.784 187.802 172.522C186.945 173.259 186.244 174.16 185.74 175.172C185.016 176.587 184.507 178.102 184.229 179.668C184.094 180.27 183.987 180.755 183.906 181.088C183.872 181.27 183.819 181.448 183.748 181.619V181.619Z" fill="#263238"/>
<path d="M183.829 159.145C183.844 159.222 183.853 159.3 183.856 159.378C183.856 159.549 183.879 159.769 183.897 160.044C183.928 160.619 183.96 161.455 183.996 162.494C184.058 164.562 184.112 167.439 184.099 170.586C184.085 173.733 184.009 176.606 183.924 178.678C183.883 179.712 183.838 180.549 183.802 181.129C183.802 181.398 183.771 181.619 183.757 181.794C183.757 181.871 183.748 181.948 183.73 182.023C183.724 181.945 183.724 181.867 183.73 181.789C183.73 181.619 183.73 181.398 183.73 181.124C183.73 180.522 183.766 179.69 183.789 178.674C183.843 176.606 183.897 173.729 183.91 170.582C183.924 167.435 183.91 164.566 183.861 162.489C183.861 161.473 183.834 160.642 183.82 160.039V159.374C183.817 159.297 183.82 159.221 183.829 159.145V159.145Z" fill="#263238"/>
<path d="M182.773 175.271C182.511 173.706 181.879 172.226 180.931 170.954C179.982 169.682 178.744 168.654 177.319 167.956C176.596 167.605 175.643 167.381 175.049 167.92C174.456 168.46 174.6 169.435 174.874 170.168C175.514 171.727 176.601 173.061 177.998 174.003C179.394 174.946 181.038 175.454 182.723 175.464" fill="#F8B219"/>
<path d="M177.67 170.406C177.826 170.457 177.977 170.523 178.12 170.604C178.299 170.687 178.473 170.78 178.641 170.883C178.87 171.011 179.092 171.151 179.307 171.301C179.57 171.478 179.823 171.669 180.066 171.872C180.348 172.102 180.619 172.347 180.876 172.605C181.459 173.203 181.973 173.865 182.409 174.579C182.832 175.3 183.172 176.068 183.42 176.867C183.525 177.216 183.61 177.57 183.676 177.928C183.736 178.24 183.78 178.555 183.807 178.872C183.833 179.132 183.845 179.393 183.843 179.654C183.855 179.85 183.855 180.047 183.843 180.243C183.841 180.412 183.823 180.581 183.789 180.747C183.744 180.747 183.82 180.027 183.694 178.885C183.66 178.574 183.609 178.265 183.542 177.959C183.472 177.608 183.382 177.261 183.272 176.921C183.02 176.136 182.683 175.383 182.265 174.673C181.838 173.97 181.336 173.316 180.768 172.722C180.518 172.464 180.255 172.22 179.981 171.989C179.748 171.781 179.503 171.586 179.248 171.405C178.309 170.739 177.67 170.442 177.67 170.406Z" fill="#263238"/>
<path d="M152.566 83.446C152.566 83.446 131.576 68.5697 128.919 67.1086C126.388 65.715 118.354 64.7034 117.635 64.5281L103.248 61.3811L81.2733 62.0375L74.9793 65.8274L59.0286 73.1913C54.6813 75.1939 51.2546 78.7699 49.4393 83.1987L39.3689 107.795L64.3785 115.186L65.1562 141.13L59.2624 182.005H132.398L128.716 103.668L136.332 105.345L152.566 83.446Z" fill="#263238"/>
<path d="M64.828 104.738C64.828 104.738 64.5627 104.931 64.0547 105.228C63.3388 105.662 62.5446 105.953 61.717 106.082C60.4776 106.169 59.2341 105.988 58.0709 105.551C56.6366 105.074 55.2467 104.472 53.9169 103.753C52.4918 103.011 51.1566 102.26 49.9068 101.658C48.8045 101.108 47.6587 100.649 46.481 100.287C45.6857 100.048 44.87 99.8822 44.0444 99.7924C43.7521 99.7609 43.5274 99.7474 43.37 99.7429H43.1362C43.4363 99.7321 43.7368 99.7426 44.0354 99.7744C44.8651 99.842 45.6859 99.9926 46.4855 100.224C47.6698 100.575 48.8219 101.026 49.9292 101.573C51.188 102.175 52.5233 102.921 53.9484 103.668C55.2742 104.382 56.6578 104.983 58.0844 105.466C59.2315 105.899 60.4572 106.084 61.681 106.01C62.5013 105.89 63.2905 105.612 64.0053 105.192C64.2615 105.048 64.4548 104.931 64.5897 104.85C64.7246 104.769 64.828 104.738 64.828 104.738Z" fill="white"/>
<path d="M63.758 92.6173H63.5917L63.1151 92.5948C62.7015 92.5723 62.1036 92.5274 61.3663 92.4555C57.5258 92.0687 53.7495 91.1987 50.127 89.8659C49.4302 89.6097 48.8727 89.3894 48.4906 89.2275L48.041 89.0387L47.8882 88.9668L48.05 89.0207L48.4996 89.1916C48.8862 89.3444 49.4482 89.5557 50.145 89.803C53.7771 91.1024 57.5494 91.9701 61.3843 92.388C62.1171 92.4689 62.733 92.5274 63.1241 92.5589L63.6007 92.5993L63.758 92.6173Z" fill="white"/>
<path d="M79.4795 67.1086C79.4795 67.1086 79.2907 67.4144 78.8951 67.9269C78.3309 68.6466 77.6835 69.297 76.9664 69.8645C75.8925 70.6964 74.7228 71.3968 73.4823 71.9505C71.9644 72.6294 70.4005 73.2003 68.8022 73.6589C67.1074 74.1624 65.4889 74.6075 64.0368 75.084C62.7457 75.4927 61.4865 75.9961 60.2694 76.5901C59.4493 76.9895 58.6643 77.4572 57.9226 77.9882C57.6529 78.1681 57.4731 78.3344 57.3292 78.4378C57.1854 78.5412 57.1179 78.5907 57.1179 78.5907C57.1179 78.5907 57.3832 78.3479 57.9002 77.9568C58.6375 77.4148 59.4196 76.9366 60.2379 76.5271C61.4559 75.9267 62.7166 75.4173 64.0098 75.0031C65.4619 74.5176 67.0849 74.0725 68.7753 73.569C70.3696 73.1127 71.9304 72.5464 73.4463 71.8741C74.6817 71.3242 75.8494 70.6333 76.926 69.8151C77.651 69.2596 78.3102 68.6231 78.8906 67.9179C79.1019 67.6751 79.2323 67.4683 79.3402 67.3289C79.4481 67.1896 79.4795 67.1086 79.4795 67.1086Z" fill="white"/>
<path d="M124.459 70.4581C124.459 70.4581 124.392 70.4266 124.266 70.3546C124.14 70.2827 123.969 70.1748 123.726 70.0534C123.057 69.6964 122.359 69.3956 121.64 69.1543C120.571 68.7955 119.477 68.5145 118.367 68.3136C117.118 68.0753 115.728 67.891 114.272 67.6842L106.818 66.6277L104.57 66.295L103.954 66.2006L103.743 66.1602L103.959 66.1826L104.575 66.2591L106.822 66.5603L114.281 67.5898C115.737 67.7921 117.126 67.9809 118.381 68.2237C119.492 68.428 120.586 68.7166 121.654 69.0869C122.375 69.3361 123.073 69.6491 123.74 70.022C124.216 70.2872 124.459 70.4581 124.459 70.4581Z" fill="white"/>
<path d="M114.281 75.4211C114.281 75.4211 114.114 75.5021 113.795 75.6414C113.476 75.7808 112.999 75.9831 112.384 76.2304C111.147 76.7204 109.344 77.3993 107.061 78.0646C104.388 78.8568 101.663 79.4578 98.9055 79.8629C95.79 80.3394 92.3148 80.3394 88.6957 80.2181C85.0767 80.0967 81.6105 79.9438 78.4725 80.1416C75.6927 80.2764 72.943 80.7783 70.2948 81.6342C68.5108 82.2211 66.8164 83.0517 65.2597 84.1023C64.7247 84.489 64.3066 84.7947 64.0458 85.0285C63.7851 85.2622 63.6322 85.3656 63.6322 85.3656C63.6322 85.3656 63.7671 85.2398 64.0323 85.015C64.2976 84.7902 64.7022 84.4665 65.2417 84.0709C66.7926 83.0052 68.4862 82.1637 70.2724 81.5713C72.925 80.7051 75.681 80.1956 78.468 80.0562C81.615 79.8539 85.0722 80.0068 88.6957 80.1236C92.3193 80.2405 95.7855 80.2495 98.8965 79.7775C101.651 79.3712 104.373 78.7703 107.043 77.9792C109.322 77.3228 111.129 76.653 112.37 76.1809C112.991 75.9381 113.467 75.7313 113.786 75.6055L114.281 75.4211Z" fill="white"/>
<path d="M121.168 79.8182C121.144 79.8361 121.116 79.8498 121.087 79.8586L120.849 79.944C120.642 80.0205 120.341 80.1194 119.95 80.2273C118.965 80.5083 117.948 80.6595 116.924 80.6768C115.899 80.6778 114.879 80.5263 113.899 80.2273C113.521 80.1149 113.22 80.0115 113 79.9305L112.766 79.8361L112.685 79.7957H112.775L113.013 79.8721C113.22 79.944 113.521 80.0384 113.912 80.1418C114.891 80.4148 115.903 80.5509 116.92 80.5465C117.938 80.5171 118.949 80.3662 119.932 80.0969C120.305 79.9935 120.611 79.9081 120.831 79.8406L121.069 79.7732L121.168 79.8182Z" fill="white"/>
<path d="M106.984 92.541C106.984 92.541 104.826 92.9906 101.306 93.5211C99.5438 93.7863 97.4399 94.0471 95.0976 94.2808C92.7553 94.5146 90.1523 94.69 87.4549 94.7934C84.7575 94.8968 82.15 94.8878 79.8122 94.8383C77.4745 94.7889 75.3165 94.663 73.5632 94.5281C70.0116 94.2584 67.8312 93.9617 67.8312 93.9617L68.2268 93.9931L69.3687 94.1055C70.3578 94.2089 71.7919 94.3348 73.5677 94.4607C75.3435 94.5866 77.461 94.69 79.8122 94.7484C82.1635 94.8069 84.7575 94.7934 87.4549 94.6989C90.1523 94.6045 92.7464 94.4112 95.0976 94.1954C97.4489 93.9796 99.5438 93.7099 101.306 93.4536C103.068 93.1974 104.489 92.9726 105.469 92.7973L106.598 92.5995L106.984 92.541Z" fill="white"/>
<path d="M124.589 91.2642H124.428H123.978C123.569 91.2642 122.98 91.2642 122.252 91.2642C120.795 91.2642 118.781 91.2057 116.569 91.0169C114.357 90.8281 112.357 90.5269 110.927 90.2661C110.208 90.1403 109.632 90.0234 109.232 89.9379L108.782 89.839L108.625 89.7986H108.787L109.237 89.8795L110.931 90.1807C112.366 90.4235 114.357 90.7112 116.569 90.9C118.781 91.0888 120.795 91.1518 122.247 91.1743H123.973H124.423L124.589 91.2642Z" fill="white"/>
<path d="M102.142 109.795C102.142 109.795 102.012 109.822 101.774 109.854L100.713 110.002C100.263 110.07 99.6877 110.146 99.0268 110.191C98.366 110.236 97.6197 110.326 96.779 110.339C95.9383 110.353 95.0392 110.416 94.0816 110.398C93.5915 110.398 93.088 110.398 92.5665 110.398L90.9616 110.344C88.7632 110.258 86.3535 110.092 83.8269 109.894C81.3003 109.697 78.8816 109.445 76.7012 109.314C74.5208 109.184 72.5337 109.085 70.8568 109.112H69.6744L68.6179 109.166C67.9615 109.193 67.3906 109.224 66.932 109.283L65.8666 109.386L65.4934 109.418C65.4934 109.418 65.6238 109.395 65.8666 109.368L66.9275 109.242C67.3771 109.18 67.9571 109.148 68.6179 109.112L69.6744 109.054H70.8568C72.5202 109.022 74.5028 109.103 76.7012 109.238C78.8996 109.373 81.3003 109.598 83.8269 109.809C86.3535 110.02 88.7721 110.196 90.9571 110.29L92.5575 110.348C93.079 110.348 93.5825 110.348 94.0726 110.348C95.0481 110.348 95.9563 110.326 96.77 110.303C97.5837 110.281 98.348 110.205 99.0179 110.164C99.6877 110.124 100.241 110.056 100.704 109.993L101.765 109.863L102.142 109.795Z" fill="white"/>
<path d="M128.6 104.517L128.402 104.549L127.826 104.607C127.332 104.661 126.608 104.72 125.718 104.783C123.92 104.904 121.46 104.99 118.731 104.922C116.003 104.855 113.534 104.63 111.759 104.414C110.86 104.306 110.154 104.207 109.659 104.131L109.093 104.041L108.895 104L109.093 104.023L109.664 104.095C110.158 104.162 110.878 104.252 111.768 104.351C113.543 104.549 116.003 104.756 118.731 104.828C121.46 104.9 123.929 104.828 125.713 104.715C126.612 104.666 127.327 104.612 127.826 104.571L128.397 104.526L128.6 104.517Z" fill="white"/>
<path d="M128.919 120.855L128.262 120.819C127.813 120.819 127.197 120.729 126.379 120.707C124.742 120.621 122.373 120.603 119.446 120.747C116.52 120.891 113.053 121.237 109.214 121.745C105.375 122.253 101.167 122.914 96.7475 123.471C92.5736 124.034 88.3705 124.354 84.1596 124.429C80.7261 124.488 77.2942 124.239 73.9049 123.687C71.6208 123.31 69.3724 122.742 67.1838 121.988C66.7927 121.866 66.4555 121.736 66.1633 121.619L65.417 121.322C65.0169 121.165 64.8101 121.075 64.8101 121.075L65.426 121.304L66.1723 121.592C66.4645 121.709 66.8061 121.835 67.1973 121.956C69.3878 122.696 71.6359 123.252 73.9183 123.62C77.3043 124.161 80.7312 124.403 84.1596 124.344C88.3709 124.259 92.5738 123.932 96.7475 123.364C101.176 122.793 105.384 122.136 109.228 121.642C113.071 121.147 116.529 120.814 119.446 120.666C121.756 120.548 124.069 120.548 126.379 120.666C128.015 120.761 128.919 120.855 128.919 120.855Z" fill="white"/>
<path d="M104.197 137.642C104.197 137.642 102.034 138.01 98.5098 138.388C96.752 138.577 94.648 138.748 92.3103 138.883C89.9725 139.017 87.392 139.08 84.6901 139.067C81.9881 139.053 79.4121 138.928 77.0743 138.775C74.7366 138.622 72.6371 138.406 70.8793 138.19C67.3591 137.741 65.2057 137.363 65.2057 137.363L65.6013 137.412L66.7297 137.579C67.2153 137.655 67.8177 137.741 68.528 137.826C69.2383 137.912 70.0206 138.033 70.8972 138.123C72.6596 138.33 74.7591 138.527 77.0923 138.689C79.4256 138.851 82.0016 138.946 84.7035 138.972C87.4055 138.999 89.9815 138.914 92.3193 138.797C94.657 138.68 96.7565 138.505 98.5188 138.321C99.418 138.24 100.196 138.136 100.893 138.06C101.589 137.983 102.192 137.903 102.691 137.835L103.819 137.687L104.197 137.642Z" fill="white"/>
<path d="M128.667 134.423C128.667 134.423 128.582 134.454 128.424 134.499L127.736 134.711C127.134 134.89 126.262 135.138 125.178 135.43C123.016 136.01 119.999 136.729 116.636 137.345C113.274 137.961 110.194 138.361 107.964 138.586C106.849 138.698 105.946 138.775 105.321 138.82L104.601 138.869H104.35L104.597 138.838L105.316 138.77C105.941 138.716 106.845 138.626 107.955 138.505C110.203 138.262 113.256 137.858 116.619 137.242C119.981 136.626 122.993 135.915 125.16 135.349C126.244 135.07 127.116 134.832 127.718 134.661L128.415 134.468L128.667 134.423Z" fill="white"/>
<path d="M87.0458 156.384C85.8872 156.564 84.7195 156.68 83.5481 156.73C82.4647 156.789 81.1699 156.793 79.7313 156.73C76.6136 156.581 73.5246 156.064 70.5286 155.188C69.1484 154.779 67.9256 154.352 66.932 153.943C65.8419 153.51 64.775 153.021 63.7356 152.478L63.9604 152.576L64.5943 152.869C64.8685 152.999 65.2057 153.156 65.6058 153.318C66.0059 153.48 66.4465 153.687 66.9545 153.876C67.9615 154.28 69.2024 154.698 70.5511 155.103C72.0487 155.526 73.5673 155.871 75.1007 156.137C76.6364 156.38 78.1834 156.545 79.7358 156.632C81.1699 156.695 82.4602 156.699 83.5437 156.632C84.0876 156.632 84.5777 156.573 85.0092 156.546C85.4408 156.519 85.805 156.479 86.1107 156.447L86.803 156.375L87.0458 156.384Z" fill="white"/>
<path d="M130.294 155.238L129.845 155.319L128.559 155.526C127.444 155.701 125.826 155.948 123.825 156.231C119.824 156.802 114.281 157.513 108.144 158.124C102.008 158.735 96.4284 159.122 92.4092 159.347C90.3906 159.459 88.7542 159.54 87.6258 159.585L86.3265 159.635H85.877L86.3265 159.608L87.6258 159.54L92.4047 159.275C96.4508 159.032 102.008 158.628 108.14 158.021C114.272 157.414 119.828 156.712 123.821 156.159L128.559 155.481L129.845 155.292L130.294 155.238Z" fill="white"/>
<path d="M132.65 171.796C132.65 171.796 131.67 172.003 129.876 172.295C128.083 172.587 125.484 172.951 122.234 173.221C118.443 173.53 114.638 173.623 110.837 173.5C106.544 173.36 101.846 172.879 96.9319 172.277C92.0181 171.674 87.3336 171.067 83.0581 170.735C79.2715 170.408 75.468 170.323 71.6705 170.478C69.1063 170.598 66.553 170.889 64.0278 171.351C63.1287 171.521 62.4454 171.665 61.9823 171.778L61.272 171.94C61.272 171.94 61.5147 171.872 61.9778 171.76C62.4409 171.647 63.1287 171.494 64.0188 171.31C66.5424 170.833 69.0962 170.533 71.6615 170.411C75.4599 170.241 79.2653 170.317 83.0536 170.64C87.338 170.973 92.0181 171.58 96.9319 172.182C101.846 172.785 106.544 173.266 110.833 173.405C114.63 173.535 118.432 173.449 122.22 173.149C125.453 172.888 128.065 172.533 129.863 172.25C130.762 172.106 131.454 171.994 131.926 171.908L132.65 171.796Z" fill="white"/>
<path d="M145.841 79.4224C145.841 79.4224 145.71 79.7775 145.418 80.3979C144.997 81.2701 144.506 82.1075 143.952 82.902C143.128 84.0767 142.227 85.1955 141.255 86.2513C140.167 87.4562 138.917 88.724 137.658 90.0997C136.456 91.3793 135.359 92.7534 134.377 94.2087C133.576 95.3983 132.928 96.6836 132.448 98.0346C132.12 98.955 131.907 99.9123 131.814 100.885C131.769 101.222 131.783 101.492 131.769 101.672C131.756 101.851 131.769 101.946 131.769 101.946C131.757 101.59 131.766 101.235 131.796 100.88C131.873 99.9116 132.074 98.9567 132.394 98.0391C132.868 96.6802 133.513 95.3871 134.314 94.1907C135.296 92.7272 136.395 91.3455 137.6 90.0592C138.868 88.688 140.122 87.4202 141.197 86.2199C142.166 85.1684 143.067 84.0557 143.894 82.8886C144.454 82.1015 144.952 81.2717 145.382 80.4069C145.544 80.1012 145.638 79.854 145.719 79.6921C145.8 79.5303 145.841 79.4224 145.841 79.4224Z" fill="white"/>
<path d="M125.133 87.1684L125.286 87.056L125.736 86.7503C126.131 86.4941 126.684 86.0984 127.35 85.5859C128.015 85.0734 128.784 84.435 129.598 83.6798C130.475 82.8566 131.307 81.9877 132.093 81.0767C132.868 80.1556 133.596 79.1952 134.273 78.1995C134.885 77.2734 135.402 76.4012 135.797 75.6774C136.193 74.9536 136.499 74.3287 136.696 73.8791L136.926 73.3891L137.011 73.2183C136.674 74.069 136.289 74.9005 135.86 75.7089C135.469 76.4552 134.961 77.3183 134.345 78.2445C133.675 79.2483 132.948 80.2134 132.169 81.1352C131.382 82.05 130.544 82.9205 129.661 83.7427C128.838 84.4935 128.069 85.1364 127.413 85.6399C126.682 86.1918 125.921 86.7021 125.133 87.1684V87.1684Z" fill="white"/>
<path d="M93.0026 108.191C93.0358 108.169 93.0722 108.152 93.1105 108.141L93.4342 108.015C93.7264 107.916 94.1355 107.736 94.6615 107.494C96.1237 106.757 97.4653 105.802 98.6402 104.661C100.372 102.961 101.9 101.064 103.194 99.0103C104.818 96.5178 106.301 93.9362 107.636 91.2777C110.031 86.4298 112.133 81.4426 113.93 76.343C114.636 74.3919 115.184 72.8004 115.571 71.7079L116.021 70.4446C116.07 70.3098 116.11 70.2064 116.142 70.1164C116.173 70.0265 116.187 70.0085 116.187 70.0085C116.185 70.0483 116.177 70.0876 116.164 70.1254C116.137 70.2153 116.101 70.3232 116.061 70.4581C115.967 70.7683 115.832 71.1954 115.656 71.7349C115.301 72.8408 114.757 74.4323 114.083 76.3969C112.326 81.5222 110.237 86.5275 107.829 91.3811C106.492 94.0472 105.002 96.6336 103.365 99.1272C102.052 101.186 100.501 103.083 98.7436 104.778C97.5523 105.919 96.1863 106.861 94.6974 107.57C94.2922 107.758 93.8764 107.921 93.4521 108.06L93.1194 108.164C93.0821 108.178 93.0427 108.188 93.0026 108.191Z" fill="#455A64"/>
<path d="M92.2518 117.703C92.326 117.632 92.4073 117.569 92.4946 117.515L93.2229 117.016C93.8478 116.566 94.7514 115.932 95.8394 115.1C98.0198 113.441 100.884 110.964 103.959 108.137C105.505 106.725 106.984 105.39 108.261 104.113C109.403 102.99 110.463 101.789 111.435 100.516C112.087 99.6554 112.667 98.7428 113.17 97.7874C113.359 97.4548 113.476 97.1805 113.566 97.0007C113.609 96.9072 113.658 96.817 113.714 96.731C113.692 96.8322 113.657 96.9303 113.611 97.0232C113.53 97.2075 113.427 97.4727 113.247 97.8279C112.773 98.806 112.208 99.7377 111.561 100.611C110.607 101.906 109.555 103.127 108.414 104.261C107.137 105.556 105.663 106.896 104.116 108.307C101.509 110.752 98.7796 113.063 95.9383 115.231C94.8369 116.053 93.9197 116.674 93.2724 117.092C92.9532 117.303 92.6969 117.452 92.5261 117.542C92.4384 117.602 92.3468 117.656 92.2518 117.703Z" fill="#455A64"/>
<path d="M80.1134 165.767L80.1673 165.663C80.2168 165.592 80.2753 165.497 80.3472 165.38C80.5045 165.128 80.7473 164.769 81.071 164.31C81.7229 163.411 82.7254 162.121 84.0471 160.619C86.7131 157.625 90.4445 153.548 94.5581 149.029L105.127 137.498L108.351 134.018L109.25 133.079L109.484 132.84C109.538 132.786 109.565 132.759 109.569 132.764C109.574 132.768 109.547 132.795 109.502 132.854L109.282 133.11L108.436 134.077C107.672 134.922 106.593 136.127 105.267 137.601L94.7424 149.182L84.1595 160.723C82.8108 162.211 81.8038 163.47 81.1339 164.364C80.7968 164.814 80.545 165.164 80.3742 165.403L80.1808 165.677C80.1631 165.71 80.1404 165.741 80.1134 165.767V165.767Z" fill="#455A64"/>
<path d="M122.085 84.9656C122.012 84.7424 121.957 84.514 121.919 84.2823C121.869 84.062 121.816 83.7877 121.775 83.4685C121.735 83.1493 121.667 82.7852 121.649 82.3806C121.631 81.976 121.582 81.5309 121.586 81.0319C121.591 80.5328 121.586 80.0428 121.622 79.5033C121.778 77.1736 122.348 74.8902 123.304 72.7598C123.533 72.2742 123.753 71.8112 123.987 71.4111C124.221 71.0109 124.437 70.6108 124.666 70.2692C124.895 69.9275 125.115 69.6263 125.286 69.37C125.444 69.1437 125.613 68.9261 125.794 68.7181C125.931 68.5318 126.081 68.356 126.244 68.1921C126.128 68.3967 125.994 68.5908 125.844 68.7721C125.709 68.9519 125.542 69.1722 125.372 69.4419C125.201 69.7117 124.98 70.0039 124.783 70.3411C124.585 70.6783 124.333 71.0649 124.131 71.4875C123.928 71.9101 123.681 72.3866 123.474 72.8362C122.546 74.956 121.983 77.2179 121.811 79.5258C121.784 80.0563 121.744 80.5598 121.753 81.0319C121.762 81.5039 121.753 81.931 121.789 82.3491C121.825 82.7672 121.851 83.1134 121.883 83.4326C121.914 83.7518 121.95 84.026 121.986 84.2508C122.042 84.4853 122.075 84.7247 122.085 84.9656V84.9656Z" fill="#455A64"/>
<path d="M128.627 101.096C128.573 101.096 127.763 99.3339 126.828 97.1041C125.893 94.8742 125.174 93.0579 125.228 93.022C125.894 94.3216 126.494 95.654 127.026 97.0142C127.631 98.3459 128.165 99.7084 128.627 101.096V101.096Z" fill="#455A64"/>
<path d="M64.3785 86.8404C64.3425 86.8629 63.9918 86.22 63.331 85.2445C61.6045 82.6978 59.3735 80.5326 56.7762 78.8831C55.7827 78.2537 55.1308 77.921 55.1488 77.885C55.3144 77.9333 55.4742 77.9997 55.6253 78.0828C55.9266 78.2222 56.3492 78.447 56.8617 78.7482C58.1924 79.5423 59.4265 80.4882 60.5391 81.567C61.6493 82.6497 62.6313 83.8565 63.4658 85.1636C63.7805 85.6671 64.0188 86.0852 64.1672 86.3819C64.253 86.5271 64.3238 86.6808 64.3785 86.8404V86.8404Z" fill="#455A64"/>
<path d="M82.0241 76.2124C81.9982 76.0637 81.9982 75.9116 82.0241 75.7629C82.1004 74.918 82.4638 74.1247 83.0536 73.515L83.0806 73.488V73.5195C83.1127 73.5822 83.1368 73.6487 83.1525 73.7173C83.1525 73.7173 83.1031 73.6589 83.0401 73.542H83.0806C82.7891 73.8865 82.5512 74.273 82.3748 74.6884C82.1877 75.1777 82.0697 75.6906 82.0241 76.2124V76.2124Z" fill="#455A64"/>
<path d="M87.9764 79.3056C87.9195 79.1622 87.8875 79.0102 87.882 78.856C87.8429 78.4878 87.8519 78.116 87.909 77.7501C87.9663 77.3845 88.0706 77.0279 88.2192 76.6891C88.273 76.5463 88.3488 76.4128 88.444 76.2935C88.2412 76.7673 88.0905 77.2617 87.9944 77.768C87.9337 78.2785 87.9277 78.7939 87.9764 79.3056V79.3056Z" fill="#455A64"/>
<path d="M94.4637 78.784C94.4428 78.3647 94.3856 77.9481 94.2929 77.5387C94.1674 77.1357 94.0033 76.7457 93.8029 76.3743C93.893 76.4624 93.9688 76.564 94.0276 76.6755C94.1832 76.9369 94.3026 77.2182 94.3828 77.5117C94.4605 77.8052 94.5012 78.1072 94.5042 78.4108C94.5123 78.5366 94.4986 78.6628 94.4637 78.784Z" fill="#455A64"/>
<path d="M100.137 76.2979C99.9462 75.8983 99.7205 75.5162 99.4629 75.156C99.1751 74.8196 98.8593 74.5083 98.5188 74.2253C98.6409 74.2751 98.7546 74.3433 98.856 74.4276C99.1098 74.6212 99.3379 74.8463 99.5348 75.0975C99.7306 75.3502 99.8938 75.6266 100.02 75.9202C100.079 76.039 100.119 76.1665 100.137 76.2979Z" fill="#455A64"/>
<path d="M104.044 72.445C103.9 71.9722 103.631 71.5468 103.266 71.2132C102.887 70.8976 102.428 70.6937 101.94 70.6243C101.94 70.6243 101.985 70.6243 102.061 70.6243C102.169 70.6279 102.276 70.6414 102.381 70.6647C102.731 70.7482 103.057 70.9147 103.329 71.1503C103.603 71.3846 103.814 71.6825 103.945 72.0179C103.987 72.1174 104.018 72.2215 104.035 72.3281C104.043 72.3665 104.046 72.4058 104.044 72.445Z" fill="#455A64"/>
<path d="M106.135 65.3285C105.789 65.052 105.384 64.8583 104.952 64.762C104.514 64.6949 104.066 64.7319 103.644 64.8699C104.05 64.6577 104.515 64.5867 104.966 64.6681C105.417 64.7495 105.828 64.9787 106.135 65.3195V65.3285Z" fill="#455A64"/>
<path d="M78.1218 71.4155C78.1305 71.2821 78.1625 71.1513 78.2162 71.0289C78.4556 70.4265 78.9085 69.9335 79.4885 69.6442C79.606 69.5804 79.7339 69.5377 79.8662 69.5183C79.4587 69.6947 79.0929 69.9548 78.7924 70.2816C78.492 70.6084 78.2635 70.9947 78.1218 71.4155V71.4155Z" fill="#455A64"/>
<path d="M76.7012 66.6771C76.7553 66.5454 76.8313 66.4238 76.926 66.3174C77.1365 66.0431 77.39 65.8048 77.6767 65.6116C77.9635 65.4146 78.2789 65.2629 78.6118 65.162C78.7462 65.115 78.8875 65.0907 79.0299 65.0901C78.0954 65.3302 77.2726 65.8861 76.7012 66.6636V66.6771Z" fill="#455A64"/>
<path d="M65.5249 94.3077C65.5249 94.3077 65.5249 94.2807 65.498 94.3077C65.479 94.354 65.4655 94.4022 65.4575 94.4516C65.435 94.5909 65.4125 94.7932 65.3856 95.0585C65.3316 95.5845 65.2732 96.3488 65.2102 97.3063C65.0799 99.199 64.9315 101.802 64.7921 104.711C64.6528 107.619 64.5449 110.222 64.4819 112.12C64.4504 113.019 64.428 113.801 64.41 114.368C64.41 114.61 64.41 114.817 64.383 114.979C64.3897 115.049 64.3897 115.12 64.383 115.19C64.3631 115.122 64.3555 115.05 64.3605 114.979C64.3605 114.813 64.3605 114.61 64.3605 114.368C64.3605 113.837 64.3605 113.068 64.3605 112.12C64.3605 110.222 64.4594 107.597 64.6033 104.702C64.7472 101.807 64.918 99.19 65.0888 97.2973C65.1743 96.3487 65.2597 95.5845 65.3406 95.0495C65.3811 94.7887 65.4215 94.5999 65.4575 94.4471C65.4699 94.393 65.4912 94.3414 65.5204 94.2942C65.5204 94.2538 65.5339 94.3167 65.5249 94.3077Z" fill="#263238"/>
<path d="M115.058 3.49904C111.309 2.35263 107.416 5.71092 103.549 4.95564C101.212 4.50607 99.4494 2.63137 97.3679 1.47148C94.2614 -0.263864 89.8646 -0.547093 86.6906 1.06686C83.5166 2.68082 81.4621 4.39818 81.035 7.93629C78.1443 6.27738 73.3249 9.9144 71.684 13.4255C70.043 16.9367 70.4521 20.5602 71.3827 24.3231C72.9996 30.8131 75.8742 36.9228 79.8437 42.3059C80.1943 42.7825 80.7428 43.3085 81.2868 43.0567C81.4545 42.9393 81.5923 42.7842 81.6891 42.6038C81.7859 42.4234 81.8391 42.2228 81.8442 42.0182C82.3972 38.579 81.9611 35.0678 81.6599 31.5972C81.3587 28.1265 81.2103 24.5479 82.3118 21.2571C83.4132 17.9662 85.9983 14.9361 89.415 14.2617C91.9416 13.7627 94.5626 14.5809 96.8059 15.8442C99.0493 17.1075 101.023 18.7889 103.158 20.223C105.294 21.6572 107.695 22.8665 110.266 22.9744C112.838 23.0823 115.598 21.8775 116.69 19.5487C117.783 17.2199 116.56 13.9111 114.042 13.3761C115.215 13.2734 116.315 12.7654 117.153 11.9394C117.992 11.1135 118.516 10.0213 118.636 8.85055C118.757 7.67982 118.465 6.50377 117.812 5.52464C117.159 4.5455 116.186 3.82448 115.058 3.48555V3.49904Z" fill="#263238"/>
<path d="M103.491 63.8089L103.127 56.3775C103.127 56.3775 112.936 54.4983 112.716 44.6302C112.608 39.8693 111.583 30.0732 110.558 21.2211C110.03 16.6272 107.79 12.401 104.284 9.38491C100.779 6.36877 96.2662 4.78409 91.6448 4.94668L90.6917 4.97815C80.455 5.94023 75.5457 15.1744 76.791 25.3841L79.1513 65.1261C79.3415 68.3401 80.7957 71.3482 83.1964 73.4936C85.597 75.639 88.749 76.7474 91.964 76.5767V76.5767C95.183 76.4046 98.2027 74.9647 100.363 72.572C102.523 70.1794 103.648 67.0286 103.491 63.8089V63.8089Z" fill="#FFBE9D"/>
<path d="M103.14 56.3776C103.14 56.3776 96.9229 57.1014 90.1523 53.1721C90.1523 53.1721 93.4432 60.1674 103.253 58.9311L103.14 56.3776Z" fill="#EB996E"/>
<path d="M107.236 27.8971C107.251 28.2635 107.123 28.6213 106.879 28.8949C106.634 29.1684 106.293 29.3362 105.928 29.3627C105.749 29.3833 105.568 29.3678 105.395 29.3174C105.223 29.2669 105.062 29.1824 104.923 29.0689C104.783 28.9554 104.668 28.8151 104.583 28.6564C104.499 28.4976 104.447 28.3235 104.431 28.1444C104.413 27.7777 104.54 27.4188 104.783 27.1441C105.027 26.8695 105.368 26.7009 105.734 26.6743C105.914 26.6532 106.096 26.6683 106.269 26.7187C106.442 26.7691 106.604 26.8539 106.744 26.968C106.884 27.082 107 27.223 107.084 27.3826C107.169 27.5422 107.22 27.7172 107.236 27.8971Z" fill="#263238"/>
<path d="M108.607 26.1034C108.436 26.2922 107.344 25.5414 105.829 25.5998C104.314 25.6583 103.23 26.454 103.059 26.2742C102.974 26.1933 103.14 25.8561 103.612 25.4875C104.251 25.0096 105.022 24.7411 105.82 24.7187C106.609 24.6876 107.387 24.9097 108.041 25.3526C108.522 25.6898 108.688 26.0179 108.607 26.1034Z" fill="#263238"/>
<path d="M92.3462 28.9537C92.3624 29.3208 92.2348 29.6798 91.9905 29.9543C91.7462 30.2288 91.4045 30.3972 91.038 30.4238C90.8593 30.4443 90.6783 30.4289 90.5057 30.3784C90.3331 30.328 90.1723 30.2435 90.0328 30.13C89.8933 30.0164 89.778 29.8762 89.6935 29.7174C89.609 29.5586 89.5571 29.3846 89.5409 29.2055C89.5247 28.8383 89.6524 28.4794 89.8967 28.2049C90.1409 27.9304 90.4827 27.7619 90.8492 27.7354C91.0278 27.7149 91.2088 27.7303 91.3814 27.7807C91.5541 27.8312 91.7148 27.9157 91.8543 28.0292C91.9938 28.1427 92.1092 28.283 92.1937 28.4418C92.2782 28.6005 92.33 28.7746 92.3462 28.9537V28.9537Z" fill="#263238"/>
<path d="M93.7174 26.9082C93.551 27.0971 92.4541 26.3463 90.939 26.4047C89.424 26.4632 88.3405 27.2589 88.1697 27.0791C88.0843 26.9982 88.2506 26.661 88.7226 26.2923C89.3632 25.8144 90.1357 25.5459 90.9345 25.5236C91.7221 25.4928 92.4987 25.7149 93.1509 26.1575C93.632 26.4991 93.8028 26.8228 93.7174 26.9082Z" fill="#263238"/>
<path d="M99.6113 37.9451C99.6113 37.8552 100.537 37.6619 102.057 37.4147C102.444 37.3607 102.808 37.2708 102.866 37.001C102.882 36.6003 102.777 36.2039 102.565 35.8636C102.169 34.942 101.756 33.9709 101.32 32.9594C99.5798 28.8189 98.3076 25.4066 98.4784 25.3167C98.6492 25.2268 100.187 28.5491 101.922 32.6897C102.345 33.7087 102.745 34.6843 103.122 35.6164C103.382 36.0743 103.473 36.6089 103.379 37.1269C103.327 37.2653 103.245 37.3902 103.138 37.4922C103.032 37.5942 102.903 37.6707 102.763 37.7159C102.55 37.7816 102.329 37.8194 102.106 37.8283C100.573 38.0036 99.6203 38.0441 99.6113 37.9451Z" fill="#263238"/>
<path d="M95.1875 39.1634C95.4348 39.1364 95.4977 40.7819 96.9454 41.9013C98.393 43.0207 100.137 42.778 100.16 43.0072C100.187 43.1106 99.7821 43.3399 99.0404 43.3849C98.0714 43.4389 97.115 43.1456 96.3429 42.5577C95.6128 41.9935 95.1294 41.1686 94.9942 40.2559C94.9088 39.568 95.0751 39.1544 95.1875 39.1634Z" fill="#263238"/>
<path d="M93.6005 19.1396C93.4656 19.5532 91.9461 19.4138 90.1748 19.6881C88.4035 19.9623 86.9828 20.5018 86.7356 20.1377C86.6232 19.9623 86.8569 19.5667 87.4234 19.1486C88.1796 18.6306 89.0443 18.2925 89.9513 18.16C90.8583 18.0276 91.7836 18.1043 92.6564 18.3843C93.3128 18.6136 93.6544 18.9418 93.6005 19.1396Z" fill="#263238"/>
<path d="M107.897 21.7606C107.641 22.1113 106.584 21.7921 105.33 21.819C104.076 21.846 103.019 22.1337 102.758 21.7786C102.646 21.6077 102.803 21.2571 103.257 20.9154C103.861 20.4924 104.583 20.2706 105.321 20.2815C106.055 20.2555 106.779 20.4582 107.393 20.8615C107.847 21.2166 108.009 21.5628 107.897 21.7606Z" fill="#263238"/>
<path d="M77.8655 32.6581C77.6947 32.5906 71.0186 30.8913 71.4681 37.6033C71.9177 44.3154 78.5893 42.4947 78.5893 42.3014C78.5893 42.108 77.8655 32.6581 77.8655 32.6581Z" fill="#FFBE9D"/>
<path d="M76.346 39.9097C76.3146 39.9097 76.2337 39.9996 76.0403 40.103C75.7729 40.2469 75.4594 40.2792 75.1682 40.1929C74.4354 39.9771 73.761 38.8892 73.6486 37.6753C73.5927 37.0999 73.6665 36.5192 73.8644 35.9759C73.9124 35.7605 74.0124 35.5601 74.1559 35.3924C74.2993 35.2246 74.4817 35.0947 74.6871 35.0139C74.8195 34.9687 74.9636 34.9715 75.0942 35.0216C75.2248 35.0717 75.3337 35.166 75.4019 35.2881C75.5053 35.4724 75.4694 35.6073 75.5053 35.6163C75.5413 35.6253 75.6447 35.4949 75.5683 35.2207C75.5192 35.0567 75.4163 34.9142 75.2761 34.8161C75.0804 34.6902 74.8435 34.645 74.6152 34.6902C74.3424 34.7627 74.0928 34.9041 73.8905 35.101C73.6881 35.2978 73.5398 35.5434 73.4598 35.8141C73.2132 36.4174 73.1175 37.0717 73.1811 37.7203C73.3159 39.069 74.0802 40.2963 75.0873 40.5121C75.2713 40.553 75.4622 40.552 75.6459 40.5092C75.8295 40.4664 76.0012 40.3829 76.1482 40.2648C76.346 40.076 76.3685 39.9232 76.346 39.9097Z" fill="#EB996E"/>
<path d="M112.572 19.0632C110.408 19.7003 108.123 19.8144 105.906 19.3963C103.688 18.9782 101.602 18.0397 99.8181 16.658C97.3454 14.7069 95.3943 11.8476 92.3552 11.0249C91.3198 10.7883 90.2476 10.7599 89.2011 10.9413C88.1546 11.1227 87.1545 11.5102 86.259 12.0814C84.4719 13.2326 82.9414 14.7401 81.7633 16.5097C83.8448 21.4549 82.7614 27.097 81.6465 32.3435C81.5851 32.9392 81.3273 33.4975 80.9136 33.9305C80.1404 34.5689 78.9265 34.1328 78.2162 33.4315C77.0608 32.3031 76.5708 30.6711 76.2336 29.0976C75.3985 25.5112 75.2869 21.7942 75.9054 18.1641C76.5383 14.5216 78.2266 11.1451 80.7608 8.45337C84.0604 5.18057 88.5039 3.31998 93.1509 3.26533C97.7739 3.24584 102.285 4.68361 106.045 7.3744C107.789 8.59723 109.407 10.0718 110.352 12.0005" fill="#263238"/>
<path d="M117.972 5.77836C118 5.97532 117.986 6.17605 117.931 6.36729C117.789 6.92379 117.474 7.42102 117.032 7.78794C116.323 8.35486 115.453 8.68227 114.546 8.72304C113.989 8.77239 113.428 8.7573 112.874 8.67809C112.237 8.59241 111.636 8.33608 111.134 7.93629C110.851 7.71275 110.623 7.4277 110.468 7.10284C110.312 6.77798 110.232 6.42187 110.235 6.06159C110.27 5.66943 110.416 5.29525 110.654 4.98195C110.893 4.66866 111.215 4.42894 111.583 4.29028C111.966 4.13149 112.38 4.06378 112.793 4.09247C113.222 4.13511 113.63 4.3023 113.966 4.57351C114.304 4.85903 114.576 5.21412 114.764 5.6145C114.951 6.01487 115.05 6.45109 115.054 6.89329C115.07 7.82639 114.72 8.72866 114.078 9.40639C113.424 10.0996 112.597 10.6068 111.682 10.8765C109.83 11.4564 107.762 11.1777 105.901 10.4539C104.095 9.71145 102.381 8.76255 100.794 7.62609C99.3307 6.58861 97.7833 5.67578 96.1676 4.8972C94.7116 4.2022 93.1088 3.87054 91.4966 3.93063C90.0987 4.03241 88.7403 4.44069 87.5179 5.12648C85.7356 6.14129 84.2434 7.59631 83.184 9.35244C82.884 9.81832 82.6094 10.3001 82.3613 10.7956C82.2851 10.9753 82.1964 11.1496 82.0961 11.3171C82.1042 11.2672 82.1194 11.2188 82.141 11.1732C82.1725 11.0833 82.2219 10.9439 82.2984 10.7686C82.5162 10.2509 82.7701 9.74918 83.0581 9.26702C84.089 7.45553 85.5812 5.94936 87.383 4.9017C88.6387 4.18739 90.0378 3.76197 91.4786 3.65639C93.139 3.57885 94.7933 3.90755 96.298 4.61397C97.9377 5.39969 99.5079 6.32312 100.991 7.37433C102.558 8.49191 104.245 9.42849 106.022 10.1662C107.843 10.8675 109.83 11.1372 111.592 10.5888C112.45 10.3207 113.222 9.83239 113.831 9.17261C114.412 8.56862 114.734 7.76241 114.73 6.92476C114.731 6.52619 114.645 6.13228 114.479 5.76994C114.313 5.4076 114.07 5.08538 113.768 4.82527C113.476 4.59433 113.126 4.44826 112.757 4.40305C112.387 4.35785 112.012 4.41527 111.673 4.56901C111.347 4.68348 111.06 4.88761 110.844 5.15798C110.629 5.42835 110.494 5.754 110.455 6.09755C110.455 6.42014 110.527 6.73864 110.666 7.02962C110.806 7.3206 111.008 7.57666 111.26 7.77895C111.73 8.15432 112.292 8.39792 112.887 8.48477C113.425 8.5688 113.971 8.59142 114.515 8.55221C115.406 8.53261 116.269 8.23037 116.978 7.68903C117.405 7.33846 117.718 6.86904 117.877 6.34032C117.921 6.15518 117.952 5.96749 117.972 5.77836V5.77836Z" fill="#455A64"/>
<path d="M70.6725 19.2744C71.3495 19.4881 72.0448 19.6386 72.7495 19.724C73.5121 19.7651 74.2754 19.6582 74.9973 19.4093C75.8844 19.0944 76.7216 18.6538 77.4835 18.1011C78.86 17.0739 79.8651 15.6269 80.3472 13.9785C80.5159 13.2857 80.6405 12.583 80.7204 11.8745C80.7693 12.0652 80.7875 12.2625 80.7743 12.459C80.7727 12.9928 80.7048 13.5244 80.572 14.0414C80.1414 15.7793 79.1173 17.3121 77.6768 18.3753C76.8893 18.9546 76.0174 19.4095 75.0918 19.724C74.3288 19.9751 73.5215 20.0624 72.7225 19.9803C72.1895 19.9192 71.6684 19.7798 71.176 19.5667C70.9922 19.4998 70.8217 19.4008 70.6725 19.2744V19.2744Z" fill="#455A64"/>
<path d="M71.1489 24.1433C71.1489 24.0803 71.9492 24.2287 73.2214 24.1118C74.8751 23.9708 76.4606 23.3883 77.8122 22.425C79.1637 21.4618 80.2317 20.1532 80.9046 18.636C81.4306 17.4716 81.5475 16.6759 81.6104 16.6894C81.6227 16.8784 81.6045 17.0681 81.5565 17.2513C81.4577 17.757 81.307 18.2511 81.1069 18.7259C80.4734 20.3203 79.3942 21.6986 77.9982 22.6959C76.6022 23.6933 74.9486 24.2675 73.2349 24.3501C72.7213 24.3766 72.2063 24.3525 71.6974 24.2781C71.5086 24.2623 71.3235 24.2168 71.1489 24.1433Z" fill="#455A64"/>
<path d="M88.907 33.5304C88.8845 33.5349 88.8614 33.5349 88.8389 33.5303C88.8165 33.5257 88.7952 33.5166 88.7763 33.5036C88.7574 33.4906 88.7414 33.474 88.7291 33.4546C88.7168 33.4353 88.7085 33.4137 88.7047 33.391C88.6972 33.3692 88.6942 33.3461 88.6961 33.3231C88.698 33.3001 88.7046 33.2777 88.7156 33.2574C88.7266 33.2371 88.7417 33.2193 88.76 33.2052C88.7782 33.191 88.7992 33.1808 88.8216 33.1753C88.8659 33.1708 88.9104 33.1825 88.9468 33.2083C88.9832 33.2341 89.009 33.2722 89.0194 33.3155C89.0298 33.3589 89.0242 33.4045 89.0035 33.4441C88.9828 33.4836 88.9486 33.5142 88.907 33.5304V33.5304Z" fill="#EB996E"/>
<path d="M91.8022 32.7706C91.7537 32.7703 91.7066 32.7536 91.6688 32.7232C91.6309 32.6929 91.6043 32.6506 91.5934 32.6033C91.5825 32.556 91.5879 32.5064 91.6086 32.4625C91.6294 32.4187 91.6643 32.3831 91.7078 32.3615C91.7575 32.3575 91.8069 32.3724 91.8461 32.4032C91.8852 32.4341 91.9113 32.4786 91.9191 32.5278C91.935 32.5755 91.9317 32.6276 91.9099 32.6729C91.8881 32.7183 91.8494 32.7533 91.8022 32.7706V32.7706Z" fill="#EB996E"/>
<path d="M93.7309 32.6537C93.6364 32.6537 93.5465 32.5593 93.5196 32.4109C93.4926 32.2625 93.551 32.1277 93.6409 32.1142C93.7309 32.1007 93.8253 32.2086 93.8522 32.3569C93.8792 32.5053 93.8208 32.6402 93.7309 32.6537Z" fill="#EB996E"/>
<path d="M90.3951 35.2972C90.3052 35.2972 90.2242 35.2568 90.2242 35.1983C90.2242 35.1399 90.2962 35.0859 90.3861 35.0859C90.476 35.0859 90.5569 35.1264 90.5569 35.1848C90.5569 35.2433 90.4895 35.2927 90.3951 35.2972Z" fill="#EB996E"/>
<path d="M93.0296 34.5867C92.9826 34.5892 92.9365 34.5731 92.9012 34.542C92.8659 34.511 92.8442 34.4673 92.8407 34.4204C92.8362 34.397 92.8363 34.373 92.8411 34.3497C92.8459 34.3264 92.8552 34.3043 92.8686 34.2847C92.882 34.265 92.8991 34.2482 92.919 34.2353C92.9389 34.2223 92.9612 34.2134 92.9846 34.2091C93.032 34.2078 93.0781 34.2248 93.1132 34.2566C93.1484 34.2884 93.17 34.3326 93.1734 34.3799C93.1813 34.4263 93.1707 34.474 93.1437 34.5127C93.1168 34.5514 93.0758 34.5779 93.0296 34.5867Z" fill="#EB996E"/>
<path d="M106.795 32.4513C106.772 32.4559 106.749 32.4557 106.726 32.4509C106.703 32.446 106.681 32.4366 106.662 32.4232C106.642 32.4098 106.626 32.3926 106.613 32.3727C106.601 32.3529 106.592 32.3307 106.589 32.3075C106.581 32.2854 106.578 32.2619 106.58 32.2386C106.582 32.2153 106.588 32.1926 106.599 32.172C106.61 32.1513 106.625 32.1332 106.644 32.1186C106.662 32.104 106.683 32.0933 106.705 32.0872C106.751 32.0814 106.798 32.0926 106.836 32.1188C106.874 32.145 106.901 32.1843 106.912 32.2293C106.924 32.2742 106.918 32.3216 106.896 32.3626C106.875 32.4035 106.839 32.4351 106.795 32.4513V32.4513Z" fill="#EB996E"/>
<path d="M108.76 32.204C108.711 32.1997 108.665 32.1788 108.629 32.1447C108.594 32.1106 108.571 32.0654 108.565 32.0166C108.559 31.9678 108.569 31.9184 108.595 31.8764C108.621 31.8344 108.66 31.8025 108.706 31.7859C108.796 31.7859 108.881 31.8578 108.899 31.9702C108.91 32.0196 108.902 32.0714 108.876 32.1149C108.85 32.1584 108.809 32.1903 108.76 32.204Z" fill="#EB996E"/>
<path d="M105.051 32.5502C105.023 32.5529 104.994 32.5475 104.969 32.5343C104.943 32.5212 104.922 32.5011 104.908 32.4763C104.894 32.4515 104.887 32.4231 104.889 32.3946C104.89 32.3661 104.9 32.3386 104.917 32.3154C104.933 32.2923 104.956 32.2745 104.983 32.2642C105.01 32.2538 105.039 32.2514 105.067 32.2572C105.095 32.263 105.12 32.2768 105.141 32.2969C105.161 32.3169 105.175 32.3424 105.181 32.3703C105.187 32.4113 105.176 32.4527 105.152 32.4861C105.128 32.5196 105.092 32.5425 105.051 32.5502V32.5502Z" fill="#EB996E"/>
<path d="M106.584 34.4878C106.539 34.503 106.49 34.5008 106.447 34.4817C106.404 34.4625 106.369 34.4278 106.35 34.3844C106.338 34.3638 106.331 34.341 106.327 34.3174C106.324 34.2937 106.326 34.2697 106.332 34.2467C106.339 34.2236 106.349 34.2021 106.364 34.1833C106.379 34.1645 106.397 34.1488 106.418 34.1371C106.462 34.1259 106.509 34.1304 106.551 34.1499C106.592 34.1695 106.625 34.2027 106.645 34.2441C106.665 34.2855 106.669 34.3324 106.658 34.3769C106.647 34.4213 106.621 34.4605 106.584 34.4878V34.4878Z" fill="#EB996E"/>
<path d="M108.257 34.0878C108.236 34.0851 108.217 34.0783 108.199 34.068C108.182 34.0576 108.167 34.0439 108.154 34.0276C108.142 34.0112 108.134 33.9926 108.129 33.9729C108.124 33.9531 108.123 33.9326 108.126 33.9125C108.14 33.8741 108.169 33.8428 108.206 33.8252C108.243 33.8075 108.285 33.805 108.324 33.8181C108.364 33.8237 108.4 33.8447 108.424 33.8767C108.449 33.9087 108.459 33.949 108.454 33.9889C108.441 34.0281 108.413 34.0605 108.376 34.079C108.339 34.0975 108.296 34.1007 108.257 34.0878V34.0878Z" fill="#EB996E"/>
<path d="M104.921 146.13L104.813 136.136C104.813 136.136 98.1457 126.897 100.767 116.876C100.767 116.876 105.114 113.819 116.771 115.608C116.771 115.608 131.405 101.352 151.02 104.98C170.634 108.608 172.46 125.697 172.648 130.35C172.837 135.003 172.792 144.039 166.04 152.873L165.59 161.64C165.59 161.64 163.981 164.94 159.328 164.715C154.675 164.49 154.935 163.816 154.935 163.816C154.935 163.816 149.091 168.532 148.839 169.763C148.587 170.995 147.67 175.666 147.67 175.666C147.67 175.666 145.643 178.422 141.268 178.746C139.538 178.869 137.807 178.514 136.265 177.721C135.68 177.424 135.159 177.015 134.734 176.515C134.309 176.016 133.987 175.437 133.788 174.812C133.37 173.428 132.664 172.148 131.716 171.057C130.769 169.965 129.601 169.086 128.289 168.478L125.268 167.686C125.268 167.686 124.05 168.797 119.811 169.251C115.571 169.705 115.553 168.203 115.553 168.203C115.553 168.203 108.958 169.727 104.004 163.258C100.092 158.142 97.9659 148.939 104.921 146.13Z" fill="#F8B219"/>
<path d="M145.58 146.705C145.646 146.598 145.72 146.496 145.8 146.399C145.948 146.201 146.169 145.914 146.443 145.536C146.996 144.785 147.769 143.675 148.623 142.241C149.617 140.56 150.48 138.804 151.204 136.99C151.613 135.965 151.995 134.872 152.332 133.726C152.67 132.58 152.953 131.339 152.656 130.129C152.299 128.957 151.533 127.952 150.498 127.297C149.544 126.657 148.522 126.125 147.45 125.71C145.635 124.994 143.728 124.54 141.785 124.361C140.476 124.237 139.157 124.237 137.847 124.361C137.398 124.402 137.024 124.447 136.777 124.483C136.654 124.508 136.529 124.522 136.404 124.523C136.524 124.485 136.648 124.456 136.773 124.438C137.011 124.388 137.371 124.325 137.838 124.271C139.152 124.108 140.48 124.082 141.799 124.195C143.77 124.343 145.708 124.784 147.549 125.503C148.638 125.917 149.677 126.452 150.646 127.099C151.729 127.785 152.528 128.839 152.894 130.066C153.209 131.357 152.894 132.642 152.566 133.789C152.238 134.935 151.833 136.037 151.415 137.071C150.68 138.891 149.799 140.648 148.781 142.326C148.093 143.455 147.343 144.545 146.533 145.59C146.245 145.963 146.011 146.242 145.854 146.426C145.772 146.528 145.68 146.621 145.58 146.705V146.705Z" fill="#263238"/>
<path d="M118.156 116.044C118.19 116.117 118.213 116.194 118.223 116.274C118.267 116.503 118.278 116.738 118.255 116.971C118.142 117.831 117.746 118.629 117.131 119.241C116.398 120.05 115.283 120.711 114.195 121.601C113.004 122.56 111.903 123.627 110.909 124.789C109.098 126.901 107.638 129.29 106.584 131.865C106.18 132.854 105.914 133.663 105.734 134.248C105.658 134.513 105.591 134.733 105.537 134.908C105.518 134.986 105.491 135.062 105.456 135.133C105.456 135.052 105.469 134.972 105.492 134.895C105.537 134.715 105.586 134.495 105.649 134.221C105.863 133.401 106.124 132.595 106.431 131.806C107.447 129.189 108.902 126.764 110.734 124.636C111.737 123.464 112.851 122.392 114.06 121.435C115.171 120.536 116.286 119.902 117.014 119.128C117.618 118.546 118.021 117.788 118.165 116.962C118.195 116.656 118.192 116.349 118.156 116.044Z" fill="#263238"/>
<g opacity="0.5">
<path opacity="0.5" d="M125.997 117.267L131.962 118.791C131.962 118.791 140.698 108.977 150.291 106.491L146.695 105.641C138.811 107.419 131.617 111.46 125.997 117.267V117.267Z" fill="black"/>
</g>
<path d="M148.345 106.019C140.499 107.783 133.361 111.854 127.849 117.708L125.997 117.258C125.997 117.258 134.457 107.975 146.699 105.632L148.345 106.019Z" fill="#F8B219"/>
<g opacity="0.7">
<path opacity="0.7" d="M148.345 106.019C140.499 107.783 133.361 111.854 127.849 117.708L125.997 117.258C125.997 117.258 134.457 107.975 146.699 105.632L148.345 106.019Z" fill="black"/>
</g>
<path d="M102.039 148.166C105.343 143.437 113.633 144.884 117.414 149.137C121.195 153.39 122.872 159.243 120.413 164.288C119.361 166.441 117.347 168.334 114.951 168.289C116.146 166.948 117.003 165.34 117.449 163.599C117.894 161.859 117.917 160.037 117.513 158.286C116.744 154.757 114.519 151.641 111.705 149.375C110.28 148.225 108.675 146.961 106.849 146.781C105.024 146.602 103.563 146.548 102.039 148.166" fill="#F8B219"/>
<g opacity="0.3">
<path opacity="0.3" d="M102.039 148.166C105.343 143.437 113.633 144.884 117.414 149.137C121.195 153.39 122.872 159.243 120.413 164.288C119.361 166.441 117.347 168.334 114.951 168.289C116.146 166.948 117.003 165.34 117.449 163.599C117.894 161.859 117.917 160.037 117.513 158.286C116.744 154.757 114.519 151.641 111.705 149.375C110.28 148.225 108.675 146.961 106.849 146.781C105.024 146.602 103.563 146.548 102.039 148.166" fill="black"/>
</g>
<g opacity="0.3">
<path opacity="0.3" d="M145.912 146.426C145.85 147.429 146.767 148.315 147.76 148.431C148.262 148.462 148.764 148.372 149.224 148.17C149.684 147.969 150.09 147.661 150.408 147.272C151.034 146.485 151.493 145.58 151.757 144.61C152.791 141.369 153.326 136.518 152.782 133.177C151.352 137.525 148.799 142.947 145.836 146.435" fill="black"/>
</g>
<g opacity="0.3">
<path opacity="0.3" d="M149.046 131.478C148.403 129.576 146.434 128.466 144.55 127.81C142.618 127.136 140.601 126.739 138.558 126.632C137.915 126.562 137.264 126.624 136.647 126.816C136.34 126.916 136.065 127.092 135.845 127.328C135.626 127.564 135.47 127.852 135.393 128.165C135.352 128.421 135.392 128.684 135.506 128.918C135.62 129.151 135.803 129.343 136.031 129.469C139.289 133.239 141.719 137.652 143.166 142.421C143.227 142.63 143.344 142.82 143.504 142.969C143.664 143.117 143.861 143.22 144.075 143.266C144.288 143.312 144.511 143.3 144.718 143.23C144.925 143.16 145.109 143.036 145.252 142.87C146.78 141.126 147.661 138.775 148.453 136.545C149.019 134.908 149.603 133.119 149.046 131.478Z" fill="black"/>
</g>
<g opacity="0.3">
<path opacity="0.3" d="M106.063 132.355C104.019 129.176 102.967 125.461 103.041 121.682C103.041 120.886 103.158 120.023 103.711 119.457C104.381 118.769 105.469 118.755 106.409 118.818C109.057 118.983 111.689 119.353 114.281 119.924C114.483 119.969 114.73 120.037 114.793 120.23C114.864 120.379 114.886 120.547 114.854 120.708C114.823 120.87 114.74 121.018 114.618 121.129C110.594 123.597 107.74 128.138 106.22 132.58" fill="black"/>
</g>
<path d="M101.05 117.231C101.058 117.458 101.048 117.685 101.018 117.91C100.982 118.36 100.942 118.976 100.915 119.753C100.779 122.899 101.174 126.045 102.084 129.059C102.39 130.044 102.709 130.912 103.014 131.631C103.32 132.35 103.585 132.921 103.779 133.308C103.893 133.504 103.986 133.712 104.057 133.928C103.921 133.747 103.801 133.554 103.698 133.353C103.478 132.975 103.19 132.409 102.866 131.694C102.487 130.858 102.156 130.001 101.877 129.127C101.544 128.052 101.277 126.957 101.077 125.849C100.737 123.841 100.627 121.8 100.749 119.767C100.798 118.989 100.861 118.355 100.928 117.924C100.947 117.689 100.987 117.458 101.05 117.231V117.231Z" fill="#FAFAFA"/>
<path d="M146.349 105.318C146.274 105.355 146.196 105.383 146.115 105.403L145.44 105.601C145.144 105.682 144.784 105.781 144.37 105.916C143.957 106.05 143.471 106.181 142.972 106.365C141.934 106.711 140.724 107.174 139.398 107.741C138.072 108.307 136.647 109.009 135.195 109.818C133.743 110.627 132.412 111.495 131.23 112.317C130.047 113.14 129.027 113.949 128.195 114.655C127.768 114.992 127.404 115.33 127.075 115.613C126.747 115.896 126.473 116.148 126.253 116.359L125.731 116.831C125.61 116.939 125.542 116.993 125.538 116.984C125.585 116.917 125.639 116.855 125.7 116.8L126.19 116.292C126.401 116.071 126.666 115.811 126.99 115.518C127.314 115.226 127.664 114.88 128.087 114.529C128.91 113.805 129.93 112.992 131.104 112.142C132.387 111.233 133.714 110.39 135.082 109.616C136.456 108.853 137.868 108.161 139.313 107.543C140.661 106.986 141.875 106.536 142.909 106.194C143.431 106.019 143.907 105.898 144.325 105.776C144.744 105.655 145.108 105.565 145.409 105.497L146.092 105.345C146.176 105.323 146.262 105.314 146.349 105.318V105.318Z" fill="#FAFAFA"/>
<path d="M151.595 129.073C151.559 129.113 150.88 128.421 149.577 127.589C148.812 127.106 148.009 126.687 147.176 126.335C146.159 125.91 145.106 125.577 144.029 125.342C142.061 124.909 140.037 124.787 138.032 124.977C136.494 125.135 135.563 125.391 135.55 125.342C135.762 125.262 135.98 125.199 136.202 125.153C136.793 125 137.394 124.887 138 124.816C140.025 124.571 142.078 124.671 144.069 125.112C145.163 125.352 146.232 125.696 147.261 126.137C148.101 126.502 148.907 126.943 149.666 127.454L150.116 127.765L150.507 128.075C150.72 128.233 150.921 128.405 151.11 128.592C151.284 128.739 151.446 128.9 151.595 129.073V129.073Z" fill="#FAFAFA"/>
<path d="M111.381 167.561C111.307 167.552 111.234 167.532 111.165 167.502C110.962 167.441 110.763 167.368 110.567 167.286C109.839 166.999 109.137 166.65 108.468 166.243C106.237 164.908 104.379 163.03 103.068 160.785C101.757 158.539 101.035 155.999 100.969 153.399C100.943 152.618 100.983 151.836 101.09 151.061C101.122 150.787 101.171 150.576 101.194 150.432C101.206 150.359 101.224 150.287 101.248 150.216C101.244 150.502 101.221 150.788 101.18 151.07C101.109 151.843 101.092 152.62 101.131 153.395C101.242 155.957 101.977 158.453 103.27 160.667C104.563 162.882 106.377 164.748 108.553 166.104C109.211 166.517 109.896 166.885 110.603 167.206C111.102 167.421 111.385 167.543 111.381 167.561Z" fill="#FAFAFA"/>
<g opacity="0.2">
<path opacity="0.2" d="M112.559 157.176C112.209 157.056 111.832 157.042 111.475 157.134C111.117 157.225 110.794 157.42 110.545 157.693C110.302 157.97 110.124 158.299 110.025 158.655C109.927 159.01 109.909 159.384 109.974 159.747C110.041 160.451 110.344 161.111 110.832 161.622C111.238 162.014 111.757 162.268 112.316 162.346C112.665 162.338 113.005 162.234 113.299 162.046C113.593 161.858 113.83 161.593 113.984 161.28C114.178 160.92 114.294 160.524 114.327 160.117C114.36 159.71 114.307 159.301 114.173 158.915C114.039 158.529 113.827 158.175 113.549 157.876C113.271 157.576 112.934 157.338 112.559 157.176" fill="black"/>
</g>
<path d="M111.862 157.081C111.538 157.472 111.319 157.939 111.225 158.438C111.131 158.937 111.166 159.451 111.325 159.933C111.485 160.415 111.764 160.848 112.137 161.192C112.51 161.537 112.965 161.78 113.458 161.901C113.256 162.082 113.014 162.213 112.751 162.282C112.488 162.352 112.213 162.358 111.948 162.301C111.287 162.081 110.72 161.646 110.337 161.066C109.954 160.485 109.777 159.793 109.835 159.1C109.863 158.531 110.094 157.992 110.486 157.58C110.867 157.249 111.358 157.071 111.862 157.081" fill="#F8B219"/>
<g opacity="0.4">
<path opacity="0.4" d="M111.862 157.081C111.538 157.472 111.319 157.939 111.225 158.438C111.131 158.937 111.166 159.451 111.325 159.933C111.485 160.415 111.764 160.848 112.137 161.192C112.51 161.537 112.965 161.78 113.458 161.901C113.256 162.082 113.014 162.213 112.751 162.282C112.488 162.352 112.213 162.358 111.948 162.301C111.287 162.081 110.72 161.646 110.337 161.066C109.954 160.485 109.777 159.793 109.835 159.1C109.863 158.531 110.094 157.992 110.486 157.58C110.867 157.249 111.358 157.071 111.862 157.081" fill="black"/>
</g>
<g opacity="0.2">
<path opacity="0.2" d="M105.932 154.618C105.594 154.505 105.231 154.493 104.887 154.582C104.542 154.671 104.231 154.859 103.99 155.121C103.755 155.389 103.584 155.706 103.488 156.049C103.392 156.393 103.375 156.753 103.437 157.104C103.512 157.778 103.804 158.409 104.269 158.902C104.661 159.28 105.163 159.523 105.703 159.599C106.039 159.592 106.366 159.492 106.649 159.312C106.932 159.131 107.16 158.876 107.308 158.574C107.494 158.226 107.606 157.844 107.637 157.451C107.668 157.058 107.618 156.662 107.489 156.29C107.359 155.917 107.154 155.576 106.886 155.286C106.619 154.997 106.294 154.766 105.932 154.609" fill="black"/>
</g>
<path d="M105.262 154.537C104.948 154.913 104.735 155.364 104.644 155.845C104.553 156.327 104.586 156.824 104.74 157.29C104.895 157.755 105.165 158.174 105.526 158.505C105.888 158.837 106.328 159.071 106.804 159.185C106.609 159.361 106.374 159.487 106.121 159.555C105.867 159.623 105.6 159.63 105.343 159.576C104.707 159.363 104.16 158.942 103.791 158.382C103.421 157.821 103.251 157.152 103.307 156.483C103.333 155.937 103.555 155.418 103.932 155.022C104.305 154.697 104.786 154.524 105.28 154.537" fill="#F8B219"/>
<g opacity="0.4">
<path opacity="0.4" d="M105.262 154.537C104.948 154.913 104.735 155.364 104.644 155.845C104.553 156.327 104.586 156.824 104.74 157.29C104.895 157.755 105.165 158.174 105.526 158.505C105.888 158.837 106.328 159.071 106.804 159.185C106.609 159.361 106.374 159.487 106.121 159.555C105.867 159.623 105.6 159.63 105.343 159.576C104.707 159.363 104.16 158.942 103.791 158.382C103.421 157.821 103.251 157.152 103.307 156.483C103.333 155.937 103.555 155.418 103.932 155.022C104.305 154.697 104.786 154.524 105.28 154.537" fill="black"/>
</g>
<path d="M122.989 142.245C122.989 142.245 123.034 142.245 123.052 142.214H123.083L122.989 142.245Z" fill="#263238"/>
<path d="M126.388 143.648C126.174 143.073 125.761 142.594 125.223 142.299C124.796 142.086 124.325 141.976 123.848 141.98H123.807C123.541 141.996 123.283 142.073 123.052 142.205C122.553 142.453 122.125 142.826 121.811 143.286C121.496 143.746 121.304 144.279 121.254 144.835C121.222 145.545 121.402 146.249 121.77 146.857C122.138 147.465 122.678 147.95 123.322 148.252C123.746 148.47 124.231 148.543 124.702 148.458C125.168 148.325 125.575 148.038 125.857 147.645C126.287 147.083 126.563 146.418 126.656 145.717C126.749 145.016 126.656 144.302 126.388 143.648V143.648Z" fill="#263238"/>
<path d="M109.093 137.871C109.111 137.86 109.131 137.851 109.151 137.844H109.178L109.093 137.871Z" fill="#263238"/>
<path d="M112.033 139.098C111.852 138.593 111.492 138.17 111.021 137.912C110.653 137.726 110.247 137.63 109.834 137.633H109.785C109.555 137.648 109.332 137.716 109.133 137.831C108.7 138.045 108.329 138.367 108.055 138.767C107.782 139.166 107.616 139.628 107.573 140.11C107.546 140.725 107.703 141.334 108.023 141.86C108.343 142.386 108.813 142.805 109.371 143.064C109.733 143.278 110.164 143.343 110.574 143.246C110.983 143.149 111.339 142.896 111.565 142.542C111.935 142.058 112.172 141.486 112.254 140.882C112.336 140.278 112.26 139.664 112.033 139.098V139.098Z" fill="#263238"/>
<path d="M112.932 146.611C113.027 146.617 113.12 146.635 113.211 146.665C113.476 146.732 113.737 146.813 113.993 146.907C114.939 147.254 115.83 147.737 116.636 148.341C117.844 149.234 118.87 150.348 119.662 151.623C120.622 153.19 121.261 154.932 121.541 156.748C121.828 158.561 121.807 160.409 121.478 162.215C121.24 163.71 120.595 165.11 119.613 166.261C118.937 167.024 118.062 167.583 117.086 167.875C116.734 167.991 116.364 168.041 115.994 168.024C116.354 167.974 116.711 167.896 117.059 167.79C118.002 167.47 118.842 166.903 119.491 166.149C120.43 165.011 121.043 163.641 121.267 162.184C121.581 160.4 121.595 158.577 121.307 156.789C121.033 155.003 120.412 153.287 119.478 151.74C118.707 150.48 117.711 149.374 116.538 148.476C115.747 147.872 114.881 147.373 113.962 146.993C113.319 146.741 112.932 146.633 112.932 146.611Z" fill="#263238"/>
<path d="M108.639 141.292C108.616 141.292 108.499 141.211 108.378 141C108.232 140.723 108.153 140.414 108.149 140.101C108.15 139.787 108.227 139.479 108.373 139.202C108.495 138.99 108.607 138.892 108.634 138.91C108.503 139.3 108.418 139.704 108.382 140.114C108.423 140.515 108.509 140.91 108.639 141.292V141.292Z" fill="#FAFAFA"/>
<path d="M122.193 146.26C122.166 146.26 122.054 146.157 121.955 145.918C121.834 145.602 121.801 145.258 121.861 144.925C121.912 144.592 122.055 144.281 122.274 144.026C122.445 143.828 122.589 143.756 122.607 143.778C122.373 144.146 122.198 144.548 122.09 144.97C122.051 145.403 122.086 145.839 122.193 146.26V146.26Z" fill="#FAFAFA"/>
<path d="M130.722 170.015C130.699 170.051 130.155 169.674 129.202 169.197C127.953 168.595 126.663 168.084 125.34 167.669C123.789 167.165 122.377 166.733 121.366 166.374C120.862 166.198 120.467 166.046 120.179 165.924C120.032 165.874 119.892 165.806 119.761 165.722C120.322 165.857 120.876 166.022 121.42 166.216C122.436 166.536 123.857 166.94 125.412 167.448C126.748 167.863 128.042 168.4 129.278 169.053C129.517 169.175 129.728 169.305 129.903 169.417C130.059 169.51 130.21 169.612 130.353 169.723C130.488 169.804 130.612 169.902 130.722 170.015V170.015Z" fill="#263238"/>
<path d="M162.619 155.535C162.498 155.757 162.359 155.969 162.205 156.169C161.935 156.569 161.508 157.131 160.964 157.805C159.517 159.544 157.945 161.176 156.262 162.687C154.297 164.486 152.467 166.01 151.172 167.161L149.644 168.509C149.466 168.687 149.273 168.849 149.068 168.995C149.224 168.798 149.395 168.614 149.581 168.446C149.923 168.1 150.431 167.615 151.065 167.021C152.332 165.839 154.144 164.274 156.1 162.499C157.775 160.992 159.356 159.384 160.834 157.684C161.396 157.027 161.841 156.483 162.133 156.101C162.28 155.9 162.442 155.711 162.619 155.535Z" fill="#263238"/>
<g opacity="0.2">
<path opacity="0.2" d="M154.976 163.861C157.395 164.058 160.141 163.317 161.859 161.613C162.721 160.735 163.303 159.622 163.531 158.413C163.759 157.205 163.623 155.955 163.14 154.824C161.728 156.838 160.137 158.978 158.195 160.624C156.972 161.662 156.158 162.921 154.976 163.874" fill="black"/>
</g>
<g opacity="0.5">
<path opacity="0.5" d="M146.362 107.318C149.509 111.949 155.96 113.414 159.08 118.054C160.29 119.852 160.879 121.974 161.463 124.06L168.656 150.014C168.953 144.39 167.6 138.824 166.251 133.353C164.926 127.958 163.597 122.563 162.263 117.168C162.044 115.961 161.605 114.805 160.969 113.756C160.258 112.735 159.202 112.021 158.172 111.328C154.477 108.847 150.673 106.32 146.34 105.331" fill="black"/>
</g>
<g opacity="0.3">
<path opacity="0.3" d="M124.297 121.336C124.495 121.965 123.632 122.824 122.288 123.889C121.609 124.42 120.817 125.027 119.945 125.688C119.073 126.348 118.147 127.072 117.171 127.854C116.196 128.637 115.315 129.414 114.474 130.102C113.633 130.79 112.901 131.478 112.226 132.031C110.909 133.132 109.897 133.802 109.317 133.479C108.738 133.155 108.778 131.878 109.547 130.089C110.007 129.051 110.591 128.073 111.287 127.176C112.99 124.968 115.181 123.185 117.688 121.965C118.709 121.469 119.785 121.096 120.894 120.855C122.823 120.482 124.108 120.733 124.297 121.336Z" fill="white"/>
</g>
<path d="M112.271 156.816C111.941 156.935 111.599 157.018 111.251 157.063C110.92 157.177 110.578 157.257 110.23 157.301C110.495 157.051 110.834 156.893 111.197 156.852C111.542 156.728 111.918 156.715 112.271 156.816V156.816Z" fill="#FAFAFA"/>
<path d="M105.447 154.339C105.134 154.413 104.817 154.468 104.498 154.505C103.99 154.617 103.599 154.829 103.572 154.77C103.545 154.712 103.887 154.402 104.444 154.276C104.607 154.219 104.78 154.196 104.952 154.206C105.124 154.217 105.292 154.262 105.447 154.339Z" fill="#FAFAFA"/>
<path d="M135.712 175.244C135.649 175.275 135.051 174.268 134.219 173.086C133.387 171.903 132.646 171 132.695 170.955C133.359 171.536 133.937 172.208 134.412 172.951C134.95 173.651 135.387 174.423 135.712 175.244Z" fill="#FAFAFA"/>
<path d="M108.931 128.062C108.994 128.102 108.108 129.41 107.339 131.164C106.571 132.917 106.202 134.45 106.13 134.432C106.14 134.088 106.201 133.747 106.31 133.42C106.515 132.615 106.787 131.829 107.124 131.069C107.457 130.308 107.852 129.576 108.306 128.88C108.479 128.581 108.689 128.307 108.931 128.062V128.062Z" fill="#FAFAFA"/>
<path d="M130.726 119.358C129.86 119.273 129.011 119.066 128.204 118.742C127.371 118.488 126.577 118.122 125.844 117.654C125.875 117.591 126.936 118.049 128.28 118.517C129.625 118.984 130.744 119.29 130.726 119.358Z" fill="#FAFAFA"/>
<path d="M165.792 112.07C164.741 113.505 163.196 114.5 161.454 114.862C162.243 114.508 163.012 114.113 163.76 113.68C164.465 113.178 165.143 112.641 165.792 112.07V112.07Z" fill="#EB996E"/>
<path d="M178.96 109.062C176.542 103.488 152.382 83.6978 152.382 83.6978L138.76 101.384C138.958 101.119 160.982 114.534 160.982 114.534L167.478 144.151L168.598 149.438C168.598 149.438 165.676 151.987 165.797 154.676C165.873 156.474 161.751 160.345 161.751 160.345C160.771 159.531 160.141 159.302 159.647 159.396L155.264 163.501L156.307 164.454C157.469 165.515 159 166.081 160.573 166.032L168.067 165.803C169.136 165.772 170.151 165.325 170.895 164.557C173.201 162.188 178.066 156.888 178.16 154.334C178.219 152.905 178.228 151.542 178.223 150.445C178.201 150.432 181.375 114.637 178.96 109.062Z" fill="#FFBE9D"/>
<path d="M171.785 156.425C171.661 156.537 171.52 156.628 171.367 156.695C171.093 156.847 170.67 157.027 170.18 157.297C169.616 157.623 169.117 158.051 168.71 158.56C168.195 159.202 167.589 159.766 166.912 160.233C165.659 161.067 164.171 161.477 162.668 161.402C162.404 161.401 162.143 161.356 161.895 161.267C161.794 161.231 161.707 161.167 161.643 161.083C161.579 160.998 161.541 160.896 161.535 160.79C161.531 160.724 161.543 160.658 161.57 160.597C161.598 160.537 161.64 160.484 161.692 160.444C161.769 160.399 161.818 160.408 161.818 160.412C161.818 160.417 161.778 160.412 161.719 160.48C161.68 160.52 161.652 160.568 161.635 160.621C161.619 160.675 161.615 160.731 161.625 160.786C161.638 160.87 161.675 160.95 161.731 161.014C161.788 161.079 161.862 161.126 161.944 161.15C162.18 161.22 162.426 161.251 162.672 161.24C164.133 161.268 165.568 160.851 166.786 160.044C167.445 159.59 168.037 159.045 168.544 158.425C168.973 157.904 169.5 157.472 170.095 157.153C170.607 156.897 171.034 156.744 171.322 156.614C171.471 156.537 171.626 156.474 171.785 156.425V156.425Z" fill="#EB996E"/>
<path d="M168.36 160.327C168.391 160.386 167.771 160.75 167.105 161.316C166.44 161.883 165.972 162.427 165.918 162.386C166.163 161.896 166.521 161.471 166.961 161.145C167.353 160.762 167.833 160.481 168.36 160.327Z" fill="#EB996E"/>
<path d="M171.376 148.058C171.376 148.126 170.715 148.166 169.991 148.508C169.268 148.85 168.809 149.331 168.76 149.281C169.042 148.857 169.436 148.519 169.897 148.301C170.358 148.084 170.869 147.997 171.376 148.049V148.058Z" fill="#EB996E"/>
<path d="M166.701 162.638C166.701 162.678 166.22 162.445 165.41 162.256C164.064 161.923 162.651 161.983 161.337 162.427C161.191 162.482 161.04 162.527 160.888 162.561C160.72 162.592 160.547 162.555 160.407 162.458L159.238 161.577C158.861 161.328 158.507 161.045 158.181 160.732C158.585 160.937 158.971 161.174 159.337 161.442L160.546 162.265C160.739 162.413 160.996 162.301 161.279 162.197C161.573 162.095 161.873 162.011 162.178 161.946C163.266 161.731 164.389 161.777 165.455 162.08C165.775 162.172 166.087 162.291 166.386 162.436C166.597 162.557 166.71 162.624 166.701 162.638Z" fill="#EB996E"/>
<path d="M115.868 93.9434C112.986 93.1207 111.709 92.7655 111.709 92.7655V91.4438H112.856C114.006 91.4438 115.661 90.0097 115.661 90.0097L118.12 86.2468L118.435 83.8326C118.174 80.8564 114.586 82.0343 114.586 82.0343C114.416 80.9958 109.821 79.9528 106.368 79.3099C105.212 79.0938 104.022 79.1374 102.884 79.4375C101.747 79.7376 100.69 80.2868 99.7911 81.0452L96.4778 83.8416L86.5513 92.5228L60.9258 114.17L44.0804 109.197C44.0804 109.197 38.7215 125.584 37.8538 131.456C36.1769 142.735 51.6826 150.252 58.534 144.448C63.848 139.952 94.8413 106.558 99.9754 101.024H100.016C103.163 100.624 108.504 97.4276 108.504 97.4276L111.242 97.7513C111.242 97.7513 118.516 99.1404 119.379 97.7153C120.026 96.6139 118.749 94.7661 115.868 93.9434Z" fill="#FFBE9D"/>
<path d="M100.946 90.6707C100.946 90.6707 101.018 90.7741 101.104 90.9854C101.229 91.2836 101.328 91.5919 101.401 91.907C101.645 92.9489 101.685 94.0284 101.517 95.0854C101.352 96.143 100.979 97.1575 100.42 98.0706C100.255 98.3471 100.065 98.6089 99.854 98.8528C99.7056 99.0282 99.6157 99.1181 99.6022 99.1046C99.5888 99.0911 99.89 98.691 100.277 97.9897C101.297 96.148 101.639 94.0065 101.243 91.9384C101.086 91.1517 100.906 90.6841 100.946 90.6707Z" fill="#EB996E"/>
<path d="M102.803 81.4904C102.895 81.4668 102.988 81.4503 103.082 81.441C103.271 81.414 103.532 81.378 103.896 81.3466C104.9 81.2362 105.915 81.2468 106.917 81.378C107.612 81.4804 108.289 81.6834 108.926 81.9804C109.666 82.3174 110.32 82.8187 110.837 83.4461C111.427 84.1444 111.753 85.0273 111.759 85.9412C111.75 86.4256 111.629 86.9013 111.404 87.3303C111.164 87.7627 110.861 88.1567 110.504 88.4992C109.832 89.1491 109.095 89.729 108.306 90.2301C107.932 90.4816 107.537 90.6983 107.124 90.8774C106.909 90.9626 106.679 91.001 106.449 90.9898C106.329 90.9841 106.212 90.9531 106.105 90.8989C105.998 90.8446 105.904 90.7684 105.829 90.6751C105.69 90.4905 105.622 90.2627 105.636 90.0323C105.64 89.8223 105.678 89.6144 105.748 89.4163C105.877 89.0488 106.054 88.6997 106.274 88.3778C106.67 87.7971 107.201 87.3206 107.82 86.9887L107.847 87.146L104.781 86.5616L103.95 86.3907C103.851 86.3767 103.754 86.351 103.662 86.3143C103.761 86.3142 103.861 86.3232 103.959 86.3413L104.795 86.4717L107.874 86.9797L108.113 87.0201L107.901 87.137C107.313 87.4649 106.811 87.927 106.436 88.4857C106.228 88.7948 106.063 89.1305 105.946 89.4838C105.869 89.6513 105.834 89.8347 105.844 90.0186C105.853 90.2025 105.906 90.3814 106 90.5403C106.139 90.6689 106.315 90.7504 106.503 90.773C106.691 90.7956 106.882 90.7582 107.047 90.6661C107.444 90.4932 107.824 90.2824 108.18 90.0367C108.956 89.544 109.679 88.973 110.338 88.3329C110.682 88.0303 110.962 87.6629 111.163 87.2517C111.365 86.8405 111.483 86.3936 111.511 85.9367C111.507 85.0755 111.204 84.2427 110.653 83.5809C110.157 82.9751 109.532 82.4881 108.823 82.1558C108.205 81.859 107.548 81.6531 106.872 81.5444C105.884 81.3994 104.883 81.3633 103.887 81.4365L103.068 81.4859C102.981 81.4987 102.891 81.5002 102.803 81.4904V81.4904Z" fill="#EB996E"/>
<path d="M114.622 82.1738C114.668 82.3319 114.693 82.495 114.699 82.6594C114.743 83.1075 114.761 83.5578 114.753 84.0081C114.756 85.4989 114.37 86.9648 113.633 88.261C112.734 89.7671 111.327 90.7381 110.163 90.891C109.931 90.9227 109.695 90.8985 109.474 90.8202C109.254 90.742 109.055 90.6121 108.895 90.4414C108.812 90.3467 108.748 90.2368 108.706 90.1177C108.688 90.0785 108.68 90.0351 108.684 89.9919C108.761 90.1311 108.855 90.2609 108.962 90.3785C109.121 90.5203 109.31 90.624 109.515 90.6816C109.72 90.7393 109.935 90.7494 110.145 90.7112C111.215 90.5358 112.572 89.5782 113.431 88.1306C114.145 86.8642 114.542 85.4434 114.586 83.9901C114.645 82.8707 114.582 82.1738 114.622 82.1738Z" fill="#EB996E"/>
<path d="M108.261 95.0136C108.234 94.9822 108.468 94.7799 108.747 94.3752C109.104 93.8551 109.327 93.2541 109.394 92.6264C109.451 91.9964 109.348 91.3622 109.093 90.7832C108.899 90.3336 108.711 90.0908 108.742 90.0684C108.961 90.2365 109.132 90.4578 109.241 90.7112C109.558 91.3045 109.693 91.9782 109.628 92.6477C109.563 93.3172 109.302 93.9527 108.877 94.4741C108.719 94.7021 108.508 94.8875 108.261 95.0136V95.0136Z" fill="#EB996E"/>
<path d="M103.891 86.4985C104.053 86.7997 104.104 87.1482 104.035 87.4831C104.006 87.8522 103.899 88.2108 103.72 88.5351C103.517 88.9311 103.26 89.2972 102.956 89.623C102.384 90.1939 101.696 90.6341 100.938 90.9133C100.639 91.0582 100.323 91.1639 99.9979 91.228C100.271 91.046 100.563 90.8952 100.87 90.7784C101.582 90.4633 102.231 90.0215 102.785 89.4747C103.076 89.1622 103.326 88.8149 103.532 88.4407C103.707 88.1436 103.823 87.8154 103.873 87.4741C103.913 87.1504 103.919 86.8235 103.891 86.4985V86.4985Z" fill="#EB996E"/>
<path d="M123.007 87.8203L110.36 94.7122C110.36 94.7122 117.127 96.3891 123.272 102.885C126.613 106.424 129.228 110.583 130.969 115.127L143.557 106.747C143.557 106.747 136.782 91.3989 123.007 87.8203Z" fill="#455A64"/>
<path d="M112.59 94.456L122.8 88.6116H122.832H122.863C124.668 89.0977 126.404 89.8123 128.029 90.738C129.875 91.8061 131.597 93.0757 133.163 94.5234C134.899 96.1161 136.491 97.8597 137.919 99.7339C139.468 101.732 140.841 103.861 142.024 106.095L142.073 106.19L141.983 106.248L141.322 106.698L131.603 113.194L131.486 113.27L131.436 113.145C130.062 109.744 128.173 106.575 125.835 103.749C123.977 101.533 121.828 99.5795 119.446 97.9402C117.893 96.8622 116.236 95.9405 114.501 95.1888C113.89 94.928 113.413 94.7392 113.085 94.6358L112.716 94.5099L112.59 94.465L112.721 94.4919L113.098 94.5998C113.431 94.7032 113.912 94.8696 114.528 95.1169C116.288 95.842 117.969 96.7459 119.545 97.8143C121.951 99.4449 124.122 101.398 125.997 103.618C128.361 106.454 130.272 109.639 131.661 113.059L131.495 113.01L141.21 106.504L141.871 106.055L141.83 106.203C140.655 103.983 139.292 101.867 137.757 99.8778C136.34 98.0125 134.76 96.2764 133.037 94.6898C131.479 93.2479 129.768 91.9815 127.934 90.9134C126.328 89.9869 124.61 89.2679 122.823 88.7734H122.885L112.59 94.456Z" fill="white"/>
<path d="M133.293 98.6102C132.96 100.557 130.497 101.735 127.786 101.24C125.075 100.746 123.137 98.7675 123.47 96.8209C123.803 94.8743 126.266 93.6964 128.977 94.1909C131.688 94.6854 133.612 96.6635 133.293 98.6102Z" fill="#FAFAFA"/>
<path d="M127.399 99.2351L126.95 99.7206L126.446 99.2306L126.869 98.781C126.507 98.4012 126.244 97.9379 126.104 97.4323L126.954 97.0636C127.068 97.5336 127.309 97.963 127.651 98.3045C127.997 98.6416 128.222 98.6686 128.352 98.5247C128.802 98.0392 126.801 96.7669 127.826 95.634C128.276 95.1575 128.959 95.0721 129.715 95.634L130.164 95.1575L130.668 95.6475L130.241 96.0971C130.524 96.4102 130.736 96.7815 130.861 97.185L130.025 97.5762C129.912 97.1893 129.707 96.8359 129.427 96.5466C129.076 96.2095 128.838 96.2095 128.703 96.3578C128.28 96.8074 130.263 98.0976 129.247 99.2216C128.829 99.6846 128.146 99.7745 127.399 99.2351Z" fill="#455A64"/>
<path d="M115.477 92.833C115.477 92.833 117.621 93.921 115.562 95.5304L112.415 94.3076L115.477 92.833Z" fill="#FAFAFA"/>
<path d="M121.236 89.5963C121.236 89.5963 123.304 91.7812 125.282 89.5063L122.845 88.6926L121.236 89.5963Z" fill="#FAFAFA"/>
<path d="M130.258 110.222C130.258 110.222 133.041 107.975 134.664 111.014L131.558 113.091L130.258 110.222Z" fill="#FAFAFA"/>
<path d="M140.527 103.672C140.527 103.672 138.517 104.931 139.879 107.525L141.938 106.149L140.527 103.672Z" fill="#FAFAFA"/>
<path d="M133.077 110.964C133.072 111.13 133.018 111.291 132.922 111.427C132.825 111.562 132.691 111.666 132.536 111.726C132.381 111.786 132.212 111.798 132.05 111.762C131.887 111.726 131.739 111.643 131.624 111.524C131.509 111.404 131.431 111.253 131.401 111.09C131.371 110.926 131.39 110.758 131.455 110.605C131.521 110.452 131.63 110.322 131.769 110.231C131.908 110.139 132.07 110.091 132.237 110.092C132.349 110.094 132.46 110.118 132.564 110.163C132.667 110.207 132.76 110.272 132.838 110.353C132.916 110.434 132.978 110.53 133.019 110.635C133.06 110.74 133.08 110.852 133.077 110.964Z" fill="#455A64"/>
<path d="M141.511 105.601C141.505 105.766 141.451 105.925 141.355 106.059C141.258 106.193 141.125 106.296 140.971 106.355C140.817 106.414 140.649 106.426 140.488 106.39C140.327 106.354 140.18 106.272 140.066 106.153C139.951 106.034 139.874 105.884 139.844 105.722C139.814 105.56 139.833 105.393 139.897 105.241C139.962 105.089 140.069 104.96 140.207 104.869C140.344 104.777 140.506 104.729 140.671 104.729C140.783 104.731 140.894 104.755 140.997 104.799C141.101 104.844 141.194 104.909 141.272 104.99C141.35 105.071 141.412 105.167 141.453 105.272C141.494 105.376 141.514 105.488 141.511 105.601V105.601Z" fill="#455A64"/>
<path d="M124.14 89.5107C124.14 89.8209 123.69 90.0727 123.173 90.0727C122.656 90.0727 122.211 89.8209 122.211 89.5107C122.211 89.2005 122.661 88.9487 123.178 88.9487C123.695 88.9487 124.14 89.196 124.14 89.5107Z" fill="#455A64"/>
<path d="M115.922 94.1727C115.966 94.3662 115.948 94.5686 115.872 94.7518C115.796 94.935 115.664 95.09 115.496 95.1954C115.328 95.3008 115.131 95.3513 114.933 95.34C114.735 95.3288 114.546 95.2562 114.39 95.1324C114.235 95.0087 114.123 94.8398 114.068 94.6491C114.013 94.4584 114.018 94.2554 114.084 94.0681C114.149 93.8808 114.271 93.7184 114.433 93.6035C114.595 93.4885 114.788 93.4266 114.987 93.4264C115.209 93.4047 115.431 93.4706 115.606 93.6099C115.78 93.7492 115.894 93.9511 115.922 94.1727V94.1727Z" fill="#455A64"/>
<path d="M123.672 93.6918C123.672 94.1683 123.079 94.555 122.346 94.555C121.613 94.555 121.024 94.1818 121.024 93.6918C121.024 93.2018 121.618 92.8286 122.351 92.8286C123.083 92.8286 123.672 93.2422 123.672 93.6918Z" fill="#FAFAFA"/>
<path d="M134.323 105.255C133.725 105.529 132.974 105.151 132.677 104.414C132.512 104.101 132.474 103.736 132.57 103.396C132.667 103.055 132.89 102.765 133.194 102.584C133.792 102.31 134.543 102.688 134.84 103.429C135.004 103.742 135.042 104.106 134.946 104.445C134.85 104.785 134.627 105.075 134.323 105.255V105.255Z" fill="#FAFAFA"/>
<path d="M115.665 90.0097L120.858 95.4899C120.858 95.4899 122.935 97.8682 124.333 96.7442C125.731 95.6203 123.767 93.5253 123.353 92.9139C122.939 92.3025 117.85 86.1299 117.85 86.1299L115.665 90.0097Z" fill="#FFBE9D"/>
<path d="M118.327 85.0824C118.307 85.4068 118.238 85.7265 118.125 86.031C117.911 86.7816 117.609 87.5044 117.225 88.1844C116.834 88.8688 116.335 89.4852 115.746 90.0097C115.515 90.2394 115.244 90.4252 114.946 90.5582C115.162 90.3214 115.392 90.0977 115.634 89.8883C116.171 89.3497 116.638 88.7455 117.023 88.09C117.918 86.4985 118.264 85.0554 118.327 85.0824Z" fill="#EB996E"/>
<path d="M70.034 106.473C69.9613 106.56 69.8799 106.64 69.7913 106.711L69.0675 107.359L66.37 109.701C64.0817 111.666 60.9033 114.368 57.3786 117.312C53.854 120.257 50.5767 122.914 48.1939 124.748C47.0071 125.683 46.0315 126.416 45.3482 126.92L44.5569 127.482C44.469 127.552 44.3741 127.614 44.2737 127.666C44.3538 127.587 44.4395 127.513 44.5299 127.446L45.2942 126.843C45.9596 126.322 46.9172 125.571 48.0905 124.622C50.4418 122.73 53.6607 120.077 57.2033 117.132C60.7459 114.188 63.9199 111.522 66.2577 109.575L69.0045 107.287L69.7598 106.675C69.845 106.6 69.9367 106.532 70.034 106.473V106.473Z" fill="#EB996E"/>
</svg>
