<svg width="163" height="75" viewBox="0 0 163 75" fill="none" xmlns="http://www.w3.org/2000/svg">
<path d="M57.3358 43.4035C56.3628 44.8106 54.9909 45.8943 53.3967 46.5152C47.8092 48.5582 42.6175 45.6835 41.6938 39.6697C41.3763 38.0798 41.4369 36.4376 41.8706 34.8755C42.3043 33.3133 43.0991 31.875 44.1908 30.6764C46.0041 28.8351 48.3462 27.6047 50.8913 27.1563C52.5659 26.765 54.2834 26.5872 56.0027 26.6273C56.5317 26.6431 56.6586 26.458 56.6248 25.9702C56.464 23.6711 54.9256 22.3729 52.2625 22.338C49.6312 22.3242 47.0573 23.1073 44.8795 24.5842L44.4013 22.8205C44.2363 23.4891 44.1125 24.0457 43.9622 24.5937C43.0562 27.3091 41.7863 29.8892 40.1872 32.2634C38.1578 35.6703 35.6672 38.7661 33.4231 42.0301C30.2328 46.5279 27.5662 51.3751 25.4752 56.4776C24.2483 59.8368 23.2781 63.2843 22.573 66.7903C22.5328 66.967 22.5656 67.1765 22.3381 67.3193C22.174 66.9593 22.0686 66.5753 22.026 66.1819C20.2368 57.032 16.1867 48.9063 10.8172 41.3699C8.13717 37.6097 5.40955 33.8833 3.04167 29.9072C1.44513 27.4472 0.437508 24.652 0.0971595 21.7392C-0.321532 17.7412 0.620858 13.7189 2.77187 10.323C4.42503 7.67979 6.63199 5.42678 9.24045 3.71941C11.8489 2.01203 14.7968 0.890938 17.8806 0.433501C23.6022 -0.669361 29.5296 0.348754 34.5552 3.2976C36.9212 4.60328 38.9907 6.38553 40.6328 8.53174C42.2749 10.6779 43.454 13.1414 44.0955 15.7665C44.268 16.4585 44.3706 17.1684 44.5188 17.9271C45.7903 17.3283 47.1207 16.8635 48.4885 16.54C51.396 15.7841 54.4466 15.7696 57.3612 16.4977C61.2653 17.6044 63.3073 20.4071 64.1971 24.2054C64.5272 25.6742 64.6908 27.1755 64.6849 28.6809C64.7103 33.3659 64.7029 38.0509 64.742 42.7348C64.768 43.8149 64.8489 44.8931 64.9843 45.965C65.034 46.4168 64.8859 46.494 64.4828 46.494C62.4461 46.4781 60.4094 46.4633 58.3737 46.5035C57.8627 46.513 57.777 46.2866 57.722 45.892C57.6162 45.1175 57.485 44.3494 57.3358 43.4035ZM25.0752 31.5662H25.0869C25.0869 26.8826 25.0869 22.1994 25.0869 17.5165C25.0869 16.6997 25.3144 16.4722 26.1449 16.4712C28.7318 16.4712 31.3198 16.4564 33.9067 16.4807C34.3817 16.4807 34.5415 16.3538 34.5309 15.8819C34.5076 14.4842 34.4928 13.0844 34.5309 11.6868C34.5457 11.1376 34.3574 11.034 33.8474 11.0287C25.9386 10.9535 18.0298 10.9684 10.121 11.0287C9.72739 11.0287 9.55705 11.1038 9.5634 11.546C9.58315 12.9864 9.57574 14.4274 9.54118 15.8692C9.52848 16.3675 9.6766 16.5178 10.1823 16.5114C12.7481 16.4807 15.3138 16.4881 17.8795 16.4807C18.6202 16.4807 18.8889 16.7346 18.8889 17.4425C18.8889 19.4972 18.8889 21.5519 18.8889 23.6066C18.8995 30.9423 18.9087 38.2745 18.9164 45.6031C18.9164 46.0793 19.0127 46.2697 19.5407 46.257C21.1087 46.221 22.6798 46.2104 24.2479 46.257C24.9134 46.2792 25.1006 46.0856 25.0943 45.4243C25.0678 40.8049 25.0752 36.1866 25.0752 31.5662ZM56.8163 34.5001H56.8745C56.8745 33.9277 56.8745 33.3564 56.8745 32.784C56.8745 32.5406 56.8226 32.3713 56.5243 32.3862C54.9113 32.3568 53.3097 32.6616 51.8203 33.2813C51.0462 33.6221 50.4004 34.1999 49.976 34.9314C49.5515 35.663 49.3704 36.5104 49.4587 37.3515C49.4289 37.9194 49.5532 38.4848 49.8184 38.9879C50.0835 39.491 50.4797 39.9131 50.9651 40.2095C51.4504 40.5059 52.0069 40.6655 52.5755 40.6717C53.1442 40.6778 53.7039 40.5301 54.1955 40.2442C54.9189 39.9269 55.5431 39.4199 56.002 38.777C56.4609 38.1341 56.7375 37.3791 56.8025 36.5918C56.8492 35.8956 56.8566 35.1972 56.8248 34.5001H56.8163Z" fill="#F8B219"/>
<path d="M123.921 36.7768C124.163 35.6225 124.404 34.4671 124.65 33.3138C125.8 27.9313 126.948 22.5483 128.095 17.165C128.174 16.7894 128.313 16.6413 128.72 16.6445C131.245 16.6635 133.768 16.6551 136.294 16.6529C136.602 16.6529 136.839 16.6392 136.694 17.0952C133.693 26.5318 131.181 36.124 127.707 45.4103C126.698 48.2921 125.339 51.0387 123.659 53.5879C121.589 56.8004 118.335 59.0662 114.604 59.8927C114.127 59.9985 113.99 59.8811 113.898 59.4293C113.436 57.1722 112.951 54.915 112.446 52.6579C112.34 52.1923 112.478 52.0685 112.905 51.931C114.288 51.5079 115.569 50.8044 116.668 49.8644C117.767 48.9244 118.661 47.768 119.293 46.4673C119.449 46.1297 119.532 45.7632 119.538 45.3914C119.543 45.0196 119.47 44.6508 119.324 44.3089C116.649 36.5902 113.979 28.8701 111.312 21.1485C110.855 19.8281 110.41 18.5035 109.937 17.1904C109.794 16.7926 109.831 16.6392 110.31 16.6434C112.941 16.6625 115.571 16.6582 118.201 16.6434C118.272 16.6305 118.345 16.6325 118.415 16.6492C118.486 16.666 118.552 16.6971 118.609 16.7407C118.667 16.7842 118.714 16.8393 118.749 16.9023C118.784 16.9654 118.806 17.035 118.813 17.1068C120.422 23.5111 122.287 29.8498 123.669 36.3112C123.71 36.4659 123.759 36.6185 123.815 36.7683L123.921 36.7768Z" fill="#F8B219"/>
<path d="M153.792 34.5277C151.226 34.5277 148.66 34.5425 146.094 34.5161C145.57 34.5108 145.513 34.6695 145.6 35.1319C145.822 36.3974 146.451 37.556 147.391 38.4321C148.331 39.3082 149.531 39.8541 150.81 39.9872C153.653 40.416 156.558 40.1295 159.262 39.1535C159.859 38.9524 159.952 39.1259 160.029 39.638C160.291 41.3542 160.57 43.0682 160.876 44.7758C160.903 44.847 160.915 44.9233 160.911 44.9995C160.906 45.0758 160.885 45.1501 160.849 45.2175C160.813 45.2848 160.763 45.3436 160.702 45.3897C160.642 45.4359 160.571 45.4683 160.497 45.4847C157.962 46.5242 155.257 47.0877 152.517 47.1469C150.546 47.2593 148.571 47.0181 146.685 46.4348C144.971 45.9147 143.402 44.9988 142.106 43.761C140.811 42.5232 139.824 40.9982 139.226 39.309C138.113 36.5214 137.646 33.5179 137.86 30.5241C138.074 27.5302 138.964 24.6237 140.462 22.0228C141.882 19.4222 144.233 17.4553 147.044 16.5175C149.855 15.5797 152.916 15.7405 155.613 16.9675C158.083 18.1716 159.985 20.2932 160.914 22.8798C162.271 26.4396 162.708 30.2844 162.183 34.0579C162.136 34.5002 161.907 34.533 161.549 34.5319C158.966 34.5235 156.379 34.5277 153.792 34.5277ZM150.214 28.188H154.411C154.684 28.188 154.975 28.2462 154.933 27.788C154.881 26.5574 154.561 25.3531 153.994 24.2595C153.686 23.7008 153.251 23.2221 152.724 22.8617C152.198 22.5013 151.594 22.2692 150.961 22.184C150.329 22.0987 149.685 22.1627 149.082 22.3708C148.479 22.5789 147.933 22.9253 147.487 23.3824C146.37 24.5895 145.683 26.1314 145.532 27.769C145.466 28.206 145.72 28.1922 146.018 28.1922C147.416 28.1859 148.815 28.1911 150.214 28.1911V28.188Z" fill="#F8B219"/>
<path d="M81.7972 26.0885C83.0235 23.088 84.3703 20.3085 85.6463 17.4973C85.7345 17.2141 85.9208 16.9718 86.1719 16.8139C86.4229 16.656 86.722 16.5929 87.0154 16.636C89.3262 16.6868 91.638 16.6551 93.9498 16.6551H94.6365C94.6925 16.9513 94.5159 17.0995 94.4143 17.2709C91.8172 21.6392 89.2148 26.0042 86.607 30.3662C86.4987 30.5151 86.4392 30.694 86.4368 30.8782C86.4343 31.0624 86.489 31.2428 86.5933 31.3946C89.2426 36.1945 91.8824 40.9998 94.5127 45.8103C94.6185 45.9934 94.7084 46.1806 94.8036 46.3615C94.6692 46.5668 94.4862 46.4822 94.3328 46.4832C91.6602 46.4896 88.9887 46.4832 86.3171 46.498C86.1542 46.5168 85.9898 46.4785 85.852 46.3895C85.7142 46.3006 85.6116 46.1665 85.5617 46.0103C84.1672 43.0192 82.6341 40.0927 81.3962 37.0286C81.3497 36.9133 81.2904 36.8054 81.2343 36.7017C80.9772 36.7239 80.9846 36.9387 80.9233 37.0752C79.5979 40.0518 78.2775 43.0305 76.962 46.0113C76.8562 46.2589 76.7895 46.4991 76.4086 46.4959C73.6313 46.479 70.854 46.4864 68.0713 46.4864C67.9983 46.169 68.2152 45.9902 68.3327 45.7839C70.9841 41.1539 73.6433 36.5282 76.3103 31.9067C76.4377 31.7346 76.5076 31.5268 76.51 31.3127C76.5125 31.0986 76.4474 30.8892 76.324 30.7143C73.6959 26.2419 71.0962 21.7527 68.4945 17.2677C68.1411 16.6604 68.1443 16.6562 68.8553 16.6551C71.3787 16.6551 73.9032 16.6688 76.4266 16.6424C76.6406 16.6162 76.8572 16.6623 77.0419 16.7736C77.2265 16.8848 77.3687 17.0547 77.4455 17.2561C78.8443 20.0069 80.2366 22.7684 81.5242 25.5775C81.5782 25.7055 81.6544 25.8261 81.7972 26.0885Z" fill="#F8B219"/>
<path d="M98.2511 31.6064C98.2511 26.8812 98.2659 22.1561 98.2341 17.4288C98.2341 16.7611 98.4309 16.6257 99.0531 16.6363C101.258 16.6733 103.463 16.6628 105.668 16.6363C106.132 16.6363 106.286 16.7506 106.285 17.2362C106.271 26.7924 106.271 36.35 106.285 45.9089C106.285 46.4083 106.114 46.4951 105.664 46.4909C103.395 46.4697 101.126 46.4623 98.8573 46.4909C98.3209 46.4983 98.2405 46.3047 98.2416 45.837C98.2564 41.0991 98.2511 36.3528 98.2511 31.6064Z" fill="#F8B219"/>
<path d="M22.6644 69.8872C24.7413 69.8732 26.8083 70.1746 28.7947 70.7812C29.3449 70.9429 29.8604 71.2051 30.3151 71.5546C31.0388 72.1492 31.0314 72.746 30.2907 73.3322C29.8327 73.677 29.3157 73.9355 28.7651 74.095C26.0741 74.882 23.2597 75.1593 20.4669 74.9128C18.8989 74.846 17.347 74.5688 15.8528 74.0886C15.409 73.9458 14.985 73.7478 14.5906 73.4993C13.5325 72.8063 13.5325 72.0318 14.6149 71.3504C15.4046 70.8931 16.2671 70.5753 17.1648 70.4109C18.9728 70.0323 20.8174 69.8566 22.6644 69.8872V69.8872Z" fill="#F8B219"/>
<path d="M98.0643 8.34459C98.0485 5.83176 99.4123 4.02676 101.529 3.73051C104.492 3.31576 106.687 5.48261 106.525 8.65778C106.538 9.30822 106.402 9.95297 106.128 10.5431C105.854 11.1332 105.45 11.6532 104.945 12.0636C104.44 12.474 103.849 12.7639 103.215 12.9115C102.581 13.0591 101.922 13.0604 101.288 12.9153C100.405 12.7044 99.6143 12.2133 99.0338 11.5155C98.4532 10.8176 98.1142 9.95052 98.0675 9.04395C98.0506 8.81118 98.0643 8.57736 98.0643 8.34459Z" fill="#F8B219"/>
<path d="M88.1823 50.4937C88.9029 50.262 89.0288 50.3392 89.1134 51.0703C88.6288 52.359 87.9327 53.5482 87.3624 54.7967C86.4211 56.7825 85.6649 58.8509 85.1035 60.9756C84.9523 61.4833 84.9016 62.0155 84.9543 62.5426C85.0051 62.9044 84.9744 63.3583 84.5226 63.389C83.9936 63.4303 83.9936 62.9341 83.9862 62.5627C83.9983 61.7371 84.1437 60.9189 84.4168 60.1398C85.0899 58.0484 85.9127 56.0082 86.8789 54.0349C86.9593 53.8635 87.0259 53.6847 87.1 53.5059C87.1688 53.4244 87.2164 53.3165 87.1264 53.2456C87.0587 53.1927 86.9931 53.2816 86.9561 53.3514C85.6902 55.1273 84.5534 56.9918 83.5545 58.9304C83.2815 59.4309 82.9789 59.9165 82.6668 60.3937C82.5868 60.5711 82.445 60.7134 82.2679 60.7939C82.0907 60.8745 81.8903 60.888 81.704 60.8317C81.2988 60.6794 81.3231 60.2678 81.3464 59.9049C81.4862 58.5131 81.8432 57.1519 82.4044 55.8706C82.6784 55.1712 82.9715 54.4793 83.3228 53.6223C82.999 53.8462 82.737 54.1483 82.561 54.5005C80.9781 57.0823 79.6682 59.8218 78.6526 62.6748C78.5457 62.9727 78.4155 63.2618 78.2633 63.5393C78.1384 63.7646 77.9395 63.9984 77.6549 63.8704C77.3449 63.7308 77.4708 63.4334 77.5491 63.2007C78.0049 61.8591 78.5304 60.5421 79.1235 59.2553C80.3794 56.5914 81.8933 54.0569 83.6434 51.6882C83.8442 51.4152 84.0645 51.1571 84.3025 50.9158C84.3771 50.8094 84.4896 50.7356 84.617 50.7096C84.7443 50.6836 84.8768 50.7074 84.9871 50.7762C85.1074 50.8484 85.1977 50.9614 85.2418 51.0945C85.2859 51.2277 85.2807 51.3723 85.2273 51.502C85.1115 51.8199 84.9744 52.1295 84.8167 52.4288C83.8286 54.3262 83.0631 56.3314 82.5356 58.4046C82.444 58.6401 82.4141 58.895 82.4488 59.1452C82.6911 59.0585 82.7293 58.8278 82.8266 58.6522C84.2242 56.1333 85.7677 53.6982 87.4491 51.3592C87.6766 51.0661 87.9379 50.7857 88.1823 50.4937Z" fill="#F8B219"/>
<path d="M38.0995 59.1039C37.9228 59.1726 37.745 59.2372 37.5705 59.3155C37.3589 59.4075 37.1377 59.5429 36.9695 59.2446C36.9328 59.1916 36.9075 59.1315 36.8951 59.0682C36.8828 59.0049 36.8837 58.9397 36.8978 58.8768C36.9119 58.8138 36.9389 58.7545 36.9771 58.7025C37.0153 58.6506 37.0639 58.6071 37.1197 58.5748C37.4192 58.3763 37.746 58.2226 38.09 58.1188C38.4423 58.0143 38.7698 57.8393 39.0526 57.6045C39.3354 57.3698 39.5676 57.08 39.7352 56.7529C40.9277 54.8237 42.2914 53.0058 43.8097 51.321C43.9661 51.1479 44.1344 50.986 44.3133 50.8364C44.5143 50.6639 44.7588 50.5306 45.0074 50.6925C45.1269 50.7656 45.2173 50.878 45.2632 51.0103C45.3092 51.1427 45.3077 51.2869 45.2592 51.4183C45.0391 52.1473 44.8053 52.872 44.5979 53.6042C44.3958 54.3163 44.2181 55.0347 44.0361 55.752C43.961 56.0483 43.9472 56.3032 44.3916 56.2493C44.6963 56.2123 44.9534 56.2842 44.946 56.6725C44.9386 57.0312 44.7344 57.2639 44.3916 57.2216C43.7039 57.1349 43.6023 57.5486 43.5145 58.0744C43.2008 59.6733 42.9919 61.2909 42.8892 62.917C42.8808 63.1625 42.848 63.4249 42.557 63.446C42.2396 63.4735 42.1285 63.2122 42.0766 62.9509C41.9863 62.2353 42.0138 61.5098 42.1581 60.8031C42.284 59.8392 42.4491 58.8785 42.6459 57.9263C42.7326 57.5031 42.5729 57.4872 42.2639 57.5697C41.5057 57.767 40.7593 58.0072 40.0283 58.2892C39.7744 58.398 39.5721 58.6003 39.4633 58.8542C38.7847 60.1464 38.1065 61.4386 37.4287 62.7308C37.3545 62.8825 37.2711 63.0295 37.179 63.171C37.0499 63.3561 36.8711 63.4958 36.6405 63.3741C36.5924 63.3502 36.5497 63.3169 36.5149 63.276C36.4801 63.2352 36.454 63.1878 36.4381 63.1365C36.4221 63.0853 36.4168 63.0313 36.4223 62.978C36.4278 62.9246 36.4441 62.8729 36.4701 62.826C36.6754 62.3393 36.8743 61.8495 37.1049 61.3776C37.4615 60.6581 37.8456 59.9514 38.2148 59.2393L38.2561 59.0891L38.0995 59.1039ZM40.4568 57.1719C41.3254 56.9148 42.0248 56.7032 42.7273 56.5043C42.7977 56.4859 42.861 56.4469 42.9089 56.3922C42.9568 56.3375 42.9872 56.2696 42.9961 56.1975C43.3219 54.9807 43.6563 53.764 44.034 52.3811C42.6572 53.8317 41.4565 55.4397 40.4568 57.1719V57.1719Z" fill="#F8B219"/>
<path d="M65.5394 61.3533C66.1518 60.9023 66.6602 60.325 67.0302 59.6605C67.1572 59.4753 67.1815 59.0553 67.5116 59.2373C67.738 59.36 67.61 59.7039 67.501 59.9324C67.0071 60.9461 66.2642 61.818 65.3416 62.4664C64.9801 62.7175 64.7104 63.0797 64.5734 63.498C64.2402 64.4561 63.8367 65.3883 63.3662 66.287C63.0978 66.8404 62.7265 67.3377 62.2722 67.7523C62.0884 67.9623 61.8401 68.1052 61.5663 68.1589C61.2925 68.2125 61.0086 68.1737 60.7592 68.0486C60.5367 67.9013 60.3661 67.6879 60.2712 67.4385C60.1763 67.1891 60.1619 66.9163 60.2302 66.6583C60.3519 65.879 60.7232 65.1603 61.2882 64.61C61.7092 64.1029 62.2195 63.6773 62.7938 63.3541C63.289 63.0975 63.7202 62.733 64.0557 62.2874C64.3912 61.8419 64.6223 61.3267 64.7321 60.7799C64.7628 60.7069 64.8094 60.6307 64.7184 60.5683C64.6833 60.607 64.6505 60.6476 64.62 60.6899C64.2228 61.1829 63.7823 61.6393 63.3038 62.0538C63.0149 62.2431 62.7134 62.4357 62.3622 62.2569C61.9791 62.0622 62.032 61.6729 62.0913 61.3544C62.4191 59.902 63.1466 58.5702 64.1915 57.5095C64.3407 57.3434 64.5449 57.2355 64.7533 57.4037C64.8002 57.4399 64.839 57.4855 64.8671 57.5375C64.8953 57.5896 64.9122 57.647 64.9168 57.7061C64.9214 57.7651 64.9136 57.8244 64.8938 57.8803C64.874 57.9361 64.8427 57.9871 64.802 58.0301C64.5332 58.4099 64.2359 58.7707 63.9555 59.1431C63.6008 59.5922 63.3066 60.0859 63.0805 60.6117C63.0192 60.7683 62.9165 60.9555 63.0805 61.0772C63.2445 61.1989 63.4054 61.0539 63.5313 60.9471C64.2473 60.3165 64.8728 59.5902 65.3902 58.7887C65.6833 58.3485 65.9595 57.8968 66.2578 57.4609C66.4113 57.2366 66.59 56.9435 66.9106 57.136C67.2037 57.3117 67.1053 57.6259 66.99 57.8766C66.6176 58.6829 66.2219 59.4775 65.8494 60.2826C65.6992 60.6074 65.5839 60.9481 65.4537 61.2814C65.4199 61.3375 65.3892 61.3957 65.4633 61.4412C65.4696 61.438 65.513 61.3819 65.5394 61.3533ZM63.4509 63.7932C62.6719 64.2418 61.9989 64.8532 61.4776 65.5855C61.224 65.903 61.0827 66.2954 61.0756 66.7017C61.0893 67.1789 61.393 67.346 61.7919 67.0752C61.9619 66.9497 62.109 66.7958 62.2267 66.6202C62.7803 65.748 63.1927 64.794 63.4488 63.7932H63.4509Z" fill="#F8B219"/>
<path d="M107.501 61.531C108.258 60.9079 108.882 60.139 109.335 59.27C109.441 59.0954 109.484 58.7209 109.786 58.869C110.049 58.9981 109.867 59.2986 109.786 59.4943C109.233 60.7167 108.374 61.7759 107.293 62.57C106.944 62.8394 106.676 63.2005 106.52 63.6132C106.111 64.7487 105.559 65.8277 104.879 66.8244C104.662 67.1395 104.383 67.4073 104.06 67.6116C103.922 67.7265 103.754 67.798 103.576 67.8171C103.398 67.8362 103.218 67.802 103.059 67.7189C102.901 67.6357 102.77 67.5073 102.685 67.3499C102.599 67.1926 102.562 67.0133 102.579 66.835C102.563 66.129 102.802 65.4409 103.251 64.8966C103.963 64.0811 104.813 63.3976 105.762 62.8779C106.312 62.5139 106.384 62.405 106.503 61.6083C106.314 61.7521 106.158 61.8812 105.993 61.9944C105.349 62.4346 104.849 62.2134 104.742 61.4379C104.718 61.2913 104.72 61.1416 104.747 60.9956C105.052 59.4463 105.855 58.0392 107.034 56.9889C107.227 56.824 107.444 56.6898 107.677 56.5911C108.418 56.2789 108.893 56.6291 108.831 57.429C108.806 58.3811 108.536 59.3107 108.048 60.1281C107.761 60.5478 107.574 61.0278 107.501 61.531V61.531ZM105.571 60.8274C105.533 61.0634 105.54 61.2379 105.711 61.3342C105.781 61.3636 105.858 61.3691 105.931 61.35C106.004 61.3309 106.069 61.2881 106.115 61.2284C106.257 61.1011 106.389 60.9643 106.511 60.819C107.052 59.9173 107.547 58.9885 107.992 58.0363C108.05 57.971 108.082 57.8869 108.082 57.7999C108.082 57.7128 108.05 57.6287 107.992 57.5634C107.815 57.4142 107.63 57.5348 107.485 57.6628C106.546 58.5038 105.88 59.6056 105.571 60.8274V60.8274ZM105.597 63.8153C104.613 64.3018 103.844 65.1361 103.439 66.1568C103.346 66.4022 103.26 66.6667 103.531 66.836C103.783 66.9926 103.979 66.7895 104.124 66.6244C104.777 65.7821 105.276 64.8307 105.597 63.8143V63.8153Z" fill="#F8B219"/>
<path d="M46.0898 61.6336C46.8109 61.3928 47.5463 61.197 48.2916 61.0474C48.5019 61.0187 48.7142 61.0074 48.9264 61.0136C48.9904 61.0077 49.055 61.0165 49.1151 61.0392C49.1752 61.062 49.2293 61.0982 49.2734 61.145C49.3174 61.1918 49.3502 61.248 49.3693 61.3094C49.3884 61.3708 49.3932 61.4357 49.3835 61.4992C49.3697 61.7965 49.2428 62.0103 48.9296 61.988C47.9515 61.9881 46.9923 62.2579 46.1576 62.7678C45.8243 62.9339 45.455 63.1773 45.0995 62.8736C44.9445 62.7259 44.8417 62.5316 44.807 62.3203C44.7722 62.1089 44.8074 61.892 44.907 61.7024C45.4511 60.1459 46.1264 58.6384 46.9257 57.1962C47.9363 55.3133 49.046 53.4853 50.25 51.7198C50.3522 51.5595 50.4672 51.4077 50.5939 51.2659C50.6238 51.2215 50.6623 51.1834 50.7071 51.154C50.7519 51.1246 50.8021 51.1044 50.8548 51.0945C50.9074 51.0847 50.9615 51.0854 51.0139 51.0967C51.0663 51.1079 51.116 51.1295 51.1599 51.1601C51.2377 51.2187 51.291 51.304 51.3093 51.3996C51.3277 51.4952 51.3099 51.5943 51.2594 51.6775C51.1098 51.9808 50.9383 52.273 50.7462 52.5514C48.9691 55.0533 47.4685 57.7406 46.2708 60.566C46.1491 60.8834 46.0665 61.2072 45.9671 61.5278L45.9978 61.6833L46.0898 61.6336Z" fill="#F8B219"/>
<path d="M53.0687 60.7153C52.5799 61.1681 52.2382 61.7024 51.7663 62.1257C51.5113 62.3542 51.2372 62.6272 50.8765 62.4346C50.7352 62.3379 50.6252 62.2022 50.56 62.0439C50.4948 61.8857 50.4771 61.7119 50.5093 61.5437C50.5375 61.0998 50.6469 60.6648 50.832 60.2603C51.1977 59.3569 51.69 58.5101 52.2942 57.7454C52.4847 57.5042 52.7301 57.0778 53.0983 57.3719C53.4665 57.666 53.1417 57.9803 52.9248 58.2406C52.3361 58.9358 51.857 59.7168 51.5039 60.5566C51.4309 60.7322 51.305 60.9576 51.4827 61.0761C51.6605 61.1946 51.8382 60.9946 51.9662 60.8645C52.6659 60.0721 53.3026 59.2262 53.8707 58.3347C54.1013 58.0173 54.3183 57.4311 54.8092 57.7411C55.2324 58.0109 54.7711 58.4246 54.641 58.741C54.2975 59.4432 54.0085 60.1708 53.7765 60.9174C53.7331 61.0983 53.6517 61.3184 53.8823 61.4168C54.0749 61.4993 54.1892 61.3025 54.2897 61.1819C55.0932 60.1917 55.6246 59.009 55.8312 57.7507C55.8654 57.4775 55.957 57.2146 56.1 56.9794C56.1414 56.9042 56.2057 56.8443 56.2835 56.8083C56.3614 56.7723 56.4487 56.7622 56.5327 56.7794C56.7443 56.827 56.7591 57.0048 56.7538 57.1794C56.7562 57.3063 56.7463 57.4331 56.7242 57.5581C56.3431 59.2352 55.5561 60.793 54.4325 62.095C54.1489 62.4283 53.7924 62.7298 53.3311 62.5235C52.837 62.3119 52.9724 61.8135 52.9809 61.403C52.998 61.1724 53.0273 60.9428 53.0687 60.7153V60.7153Z" fill="#F8B219"/>
<path d="M59.6843 61.3504C59.4324 61.7032 59.1597 62.0406 58.8675 62.3608C58.7739 62.4799 58.6472 62.5687 58.5034 62.6159C58.3595 62.6632 58.2048 62.6669 58.0588 62.6265C57.9129 62.5862 57.7821 62.5036 57.6829 62.3891C57.5838 62.2746 57.5207 62.1333 57.5016 61.9831C57.3998 61.592 57.3954 61.1818 57.4889 60.7886C57.7147 59.4662 58.3325 58.242 59.2622 57.2748C59.5206 56.9899 59.8488 56.7774 60.2144 56.658C60.955 56.438 61.319 56.8696 61.3401 57.6219C61.2366 58.4684 61.0028 59.294 60.6471 60.0691C60.4972 60.5095 60.4183 60.9709 60.4133 61.4361C60.4127 61.5747 60.4504 61.7109 60.522 61.8296C60.5937 61.9483 60.6966 62.0449 60.8196 62.109C61.1179 62.2688 61.2153 62.5248 61.0312 62.7915C60.8471 63.0581 60.5307 62.9882 60.2906 62.8359C59.7732 62.5153 59.7287 61.9757 59.6843 61.3504ZM58.2443 60.8806C58.2496 61.1822 58.1936 61.4562 58.4686 61.5567C58.7035 61.6424 58.8559 61.4371 58.9977 61.2837C59.0806 61.1878 59.1559 61.0856 59.223 60.978C59.8303 60.0786 60.0927 59.009 60.6514 58.0832C60.8206 57.8028 60.5836 57.66 60.3212 57.6303C60.2038 57.6263 60.0871 57.6504 59.9807 57.7004C59.8744 57.7504 59.7815 57.8251 59.7097 57.9181C58.9397 58.7394 58.4298 59.7702 58.2443 60.8806V60.8806Z" fill="#F8B219"/>
<path d="M102.151 59.6519C101.53 60.2893 101.028 61.0329 100.67 61.8474C100.577 62.0373 100.471 62.2205 100.352 62.3954C100.315 62.4609 100.256 62.511 100.185 62.5367C100.114 62.5625 100.037 62.5623 99.966 62.5362C99.8939 62.5131 99.8321 62.4659 99.791 62.4024C99.7499 62.3389 99.7321 62.2632 99.7406 62.1881C99.7499 61.9785 99.7854 61.7709 99.8464 61.5702C100.291 60.313 100.844 59.097 101.5 57.9358C101.642 57.6808 101.783 57.2364 102.175 57.4491C102.527 57.6406 102.322 58.0067 102.187 58.2956C102.172 58.3163 102.161 58.3399 102.155 58.3649C102.149 58.3898 102.148 58.4157 102.153 58.441C102.157 58.4663 102.166 58.4905 102.18 58.5122C102.193 58.534 102.211 58.5527 102.232 58.5675C102.611 58.2352 102.989 57.8819 103.396 57.5602C103.619 57.3825 103.909 57.1084 104.181 57.3486C104.453 57.5888 104.287 57.9528 104.106 58.2173C103.498 59.0066 103.025 59.8916 102.707 60.8359C102.461 61.4974 102.482 62.229 102.768 62.8747C102.873 63.0863 102.971 63.3487 102.697 63.4884C102.393 63.6439 102.168 63.4661 102.03 63.19C101.688 62.3827 101.662 61.4759 101.959 60.6507C102.037 60.345 102.171 60.0519 102.277 59.7535C102.309 59.6879 102.37 59.6149 102.277 59.561C102.257 59.5557 102.193 59.6213 102.151 59.6519ZM102.12 58.6775C102.164 58.636 102.205 58.5907 102.241 58.5421C102.241 58.5347 102.185 58.4659 102.171 58.4712C102.118 58.4957 102.068 58.5255 102.021 58.5601L102.12 58.6775Z" fill="#F8B219"/>
<path d="M68.1648 61.0096C68.1588 60.6084 68.286 60.2166 68.5266 59.8955C68.6461 59.7379 68.8102 59.5844 69.0091 59.6945C69.208 59.8045 69.0609 59.9897 69.0091 60.142C68.9127 60.3547 68.8615 60.585 68.8587 60.8185C68.856 61.052 68.9018 61.2835 68.9932 61.4984C69.191 61.8782 69.5042 62.1089 69.9253 61.9322C70.0926 61.8572 70.2233 61.7191 70.289 61.548C70.3546 61.3768 70.3498 61.1867 70.2755 61.0191C70.1376 60.6415 69.9602 60.2794 69.7465 59.9389C69.5206 59.5898 69.4059 59.1806 69.4174 58.765C69.4289 58.3495 69.5662 57.9472 69.811 57.6112C70.0967 57.1965 70.4939 56.8713 70.9568 56.6732C71.4197 56.475 71.9293 56.4121 72.4265 56.4918C72.8878 56.5574 73.0465 56.8885 73.0423 57.316C72.9985 57.7822 72.8013 58.2208 72.4815 58.5629C72.1618 58.9051 71.7376 59.1315 71.2754 59.2067C71.0807 59.2236 70.8236 59.3072 70.7548 59.0036C70.7383 58.947 70.7342 58.8875 70.7429 58.8293C70.7515 58.771 70.7727 58.7153 70.805 58.666C70.8373 58.6167 70.8799 58.575 70.9299 58.5438C70.9798 58.5126 71.036 58.4926 71.0944 58.4851C71.4308 58.4353 71.7453 58.2882 71.9991 58.0619C72.1599 57.8821 72.309 57.6937 72.1747 57.4419C72.0403 57.1901 71.8054 57.2599 71.6055 57.2938C71.358 57.3301 71.1226 57.424 70.9181 57.568C70.7137 57.712 70.546 57.9021 70.4285 58.1229C70.311 58.3436 70.247 58.5889 70.2418 58.8389C70.2365 59.0889 70.2901 59.3367 70.3983 59.5622C70.5707 59.9473 70.8151 60.3028 70.9654 60.6943C71.0561 60.8869 71.1056 61.0963 71.1108 61.3091C71.116 61.522 71.0767 61.7335 70.9955 61.9303C70.9142 62.1271 70.7927 62.3048 70.6389 62.4519C70.4851 62.5991 70.3022 62.7125 70.102 62.785C69.0482 63.1754 68.1658 62.4316 68.1648 61.0096Z" fill="#F8B219"/>
<path d="M95.5494 59.2445C95.9842 59.417 96.1959 59.1049 96.4582 58.9102C96.6159 58.7928 96.7651 58.5399 96.9947 58.7346C97.2243 58.9293 97.1005 59.1673 96.9767 59.3694C96.8453 59.6396 96.6301 59.8602 96.3632 59.9982C96.0963 60.1363 95.7919 60.1844 95.4954 60.1354C95.4378 60.1152 95.3766 60.1071 95.3157 60.1115C95.2548 60.1159 95.1954 60.1327 95.1413 60.161C95.0871 60.1893 95.0393 60.2283 95.0009 60.2758C94.9625 60.3233 94.9342 60.3781 94.9178 60.437C94.5932 61.1287 94.1409 61.753 93.5846 62.2769C93.3296 62.5065 93.0419 62.7435 92.6779 62.5626C92.533 62.4725 92.4158 62.344 92.3394 62.1915C92.263 62.0389 92.2304 61.8681 92.2452 61.6981C92.25 61.04 92.4045 60.3917 92.6969 59.8021C93.0048 59.0382 93.3561 58.2913 93.6936 57.539C93.7793 57.3485 93.8618 57.0946 94.1306 57.1782C94.3993 57.2618 94.3485 57.521 94.302 57.7252C94.0941 58.4355 93.8236 59.1259 93.4936 59.7884C93.2894 60.2067 93.1393 60.6493 93.0471 61.1056C93.0292 61.2252 93.0144 61.3712 93.153 61.44C93.2116 61.4673 93.2777 61.4738 93.3406 61.4586C93.4034 61.4435 93.4592 61.4074 93.4989 61.3564C94.2021 60.7063 94.6551 59.8302 94.7791 58.8806C94.7724 58.3713 94.912 57.8708 95.1812 57.4385C95.2408 57.3236 95.3381 57.2327 95.4568 57.1811C95.5755 57.1295 95.7083 57.1202 95.8329 57.1549C96.1504 57.2607 96.0689 57.5538 96.0276 57.8035C95.9191 58.2993 95.7588 58.7823 95.5494 59.2445V59.2445Z" fill="#F8B219"/>
<path d="M87.6506 61.4063C87.7218 60.5422 87.9656 59.7011 88.3676 58.933C88.7696 58.1648 89.3217 57.485 89.991 56.9339C90.1352 56.7745 90.3275 56.6664 90.5387 56.6262C90.7498 56.5859 90.9684 56.6155 91.1612 56.7107C91.5463 56.9477 91.5325 57.3974 91.4786 57.8026C91.2408 59.2908 90.6317 60.6951 89.7075 61.8856C89.6274 61.984 89.54 62.0763 89.4461 62.1617C89.3025 62.3617 89.0979 62.5096 88.863 62.5832C88.6282 62.6569 88.3757 62.6523 88.1437 62.5701C87.676 62.3617 87.6348 61.8803 87.6506 61.4063ZM88.4547 60.8275C88.4399 61.1978 88.4177 61.4348 88.6462 61.5427C88.9001 61.6612 89.0874 61.4856 89.2557 61.3216C89.3511 61.2381 89.4325 61.1399 89.4969 61.0306C89.8545 60.045 90.2635 59.0788 90.7221 58.1359C90.7468 58.1006 90.7637 58.0605 90.7718 58.0181C90.7798 57.9758 90.7788 57.9323 90.7688 57.8904C90.7588 57.8486 90.7401 57.8093 90.7138 57.7751C90.6875 57.741 90.6542 57.7129 90.6163 57.6925C90.5474 57.6624 90.4707 57.6555 90.3976 57.6729C90.3244 57.6903 90.259 57.731 90.2111 57.7888C89.3077 58.5813 88.6904 59.6492 88.4547 60.8275V60.8275Z" fill="#F8B219"/>
<path d="M96.9199 62.2868C97.2161 60.8965 97.7212 59.5591 98.4181 58.3202C98.6371 57.9372 98.8793 57.5658 99.1248 57.1987C99.1571 57.1304 99.2137 57.0766 99.2835 57.0476C99.3533 57.0187 99.4314 57.0167 99.5025 57.0421C99.7067 57.1225 99.7078 57.3087 99.6644 57.4653C99.609 57.6454 99.5319 57.818 99.4348 57.9795C98.6855 59.2999 98.1064 60.7098 97.7113 62.1757C97.6846 62.2775 97.6525 62.3778 97.615 62.4762C97.5346 62.6878 97.414 62.8666 97.1526 62.7872C96.9304 62.7238 96.903 62.5301 96.9199 62.2868Z" fill="#F8B219"/>
<path d="M106.548 64.7185C106.515 64.9348 106.438 65.1422 106.324 65.3287C106.21 65.5153 106.059 65.6772 105.882 65.8051C105.818 65.8637 105.738 65.9001 105.652 65.9089C105.567 65.9177 105.48 65.8984 105.407 65.8538C105.326 65.8022 105.264 65.7258 105.231 65.6361C105.197 65.5464 105.194 65.4483 105.221 65.3565C105.311 64.9391 105.55 64.5687 105.893 64.3144C105.958 64.258 106.038 64.2224 106.124 64.2123C106.209 64.2021 106.295 64.2177 106.371 64.2572C106.557 64.3493 106.548 64.5228 106.548 64.7185Z" fill="#F8B219"/>
</svg>
