<svg width="52" height="52" viewBox="0 0 52 52" fill="none" xmlns="http://www.w3.org/2000/svg">
<path d="M26 0C11.6637 0 0 11.6637 0 26C0 40.3363 11.6637 52 26 52C40.3363 52 52 40.3363 52 26C52 11.6637 40.3363 0 26 0ZM39.5312 17.2863L22.7313 37.2863C22.547 37.5057 22.3177 37.6831 22.0589 37.8062C21.8001 37.9294 21.5178 37.9955 21.2313 38H21.1975C20.9172 37.9999 20.64 37.9409 20.384 37.8267C20.1279 37.7126 19.8987 37.5459 19.7113 37.3375L12.5112 29.3375C12.3284 29.1436 12.1862 28.915 12.0929 28.6653C11.9996 28.4156 11.9572 28.1498 11.9681 27.8835C11.9791 27.6171 12.0431 27.3557 12.1565 27.1145C12.27 26.8733 12.4305 26.6571 12.6286 26.4788C12.8267 26.3005 13.0585 26.1636 13.3103 26.0762C13.5621 25.9887 13.8288 25.9525 14.0948 25.9696C14.3608 25.9867 14.6207 26.0568 14.8592 26.1758C15.0978 26.2948 15.3101 26.4603 15.4837 26.6625L21.145 32.9525L36.4688 14.7138C36.8125 14.3163 37.2988 14.0702 37.8226 14.0284C38.3463 13.9867 38.8655 14.1528 39.2678 14.4907C39.6701 14.8287 39.9233 15.3114 39.9726 15.8345C40.0219 16.3576 39.8634 16.8791 39.5312 17.2863Z" fill="#48BF84"/>
</svg>
