<svg width="33" height="29" viewBox="0 0 33 29" fill="none" xmlns="http://www.w3.org/2000/svg">
<path d="M0.00396729 4.5C0.00396729 3.43913 0.425395 2.42172 1.17554 1.67157C1.92569 0.921427 2.9431 0.5 4.00397 0.5H28.004C29.0648 0.5 30.0822 0.921427 30.8324 1.67157C31.5825 2.42172 32.004 3.43913 32.004 4.5V24.5C32.004 25.5609 31.5825 26.5783 30.8324 27.3284C30.0822 28.0786 29.0648 28.5 28.004 28.5H4.00397C2.9431 28.5 1.92569 28.0786 1.17554 27.3284C0.425395 26.5783 0.00396729 25.5609 0.00396729 24.5V4.5V4.5ZM2.00397 22.5V24.5C2.00397 25.0304 2.21468 25.5391 2.58975 25.9142C2.96483 26.2893 3.47353 26.5 4.00397 26.5H28.004C28.5344 26.5 29.0431 26.2893 29.4182 25.9142C29.7933 25.5391 30.004 25.0304 30.004 24.5V17.5L22.45 13.606C22.2624 13.512 22.0501 13.4795 21.843 13.5128C21.6359 13.5462 21.4445 13.6439 21.296 13.792L13.876 21.212L8.55597 17.668C8.36389 17.5401 8.13349 17.4826 7.90384 17.5052C7.6742 17.5278 7.45943 17.6291 7.29597 17.792L2.00397 22.5ZM12.004 9.5C12.004 8.70435 11.6879 7.94129 11.1253 7.37868C10.5627 6.81607 9.79962 6.5 9.00397 6.5C8.20832 6.5 7.44526 6.81607 6.88265 7.37868C6.32004 7.94129 6.00397 8.70435 6.00397 9.5C6.00397 10.2956 6.32004 11.0587 6.88265 11.6213C7.44526 12.1839 8.20832 12.5 9.00397 12.5C9.79962 12.5 10.5627 12.1839 11.1253 11.6213C11.6879 11.0587 12.004 10.2956 12.004 9.5Z" fill="#979797"/>
</svg>
