<svg width="20" height="99" viewBox="0 0 20 99" fill="none" xmlns="http://www.w3.org/2000/svg">
<path d="M9.99996 17.5C8.9474 16.6022 7.97178 15.618 7.08329 14.5575C5.74996 12.965 4.16663 10.5934 4.16663 8.33338C4.16544 5.973 5.58683 3.84453 7.76752 2.94121C9.9482 2.03788 12.4583 2.53774 14.1266 4.20754C15.2237 5.29972 15.8382 6.78537 15.8333 8.33338C15.8333 10.5934 14.25 12.965 12.9166 14.5575C12.0281 15.618 11.0525 16.6022 9.99996 17.5ZM9.99996 5.83338C9.1068 5.83338 8.28148 6.30987 7.8349 7.08338C7.38831 7.85688 7.38831 8.80987 7.8349 9.58338C8.28148 10.3569 9.1068 10.8334 9.99996 10.8334C11.3807 10.8334 12.5 9.71409 12.5 8.33338C12.5 6.95266 11.3807 5.83338 9.99996 5.83338Z" fill="#31C631"/>
<circle cx="10" cy="27" r="1" fill="#979797"/>
<circle cx="10" cy="33" r="1" fill="#979797"/>
<circle cx="10" cy="39" r="1" fill="#979797"/>
<circle cx="10" cy="45" r="1" fill="#979797"/>
<circle cx="10" cy="51" r="1" fill="#979797"/>
<circle cx="10" cy="57" r="1" fill="#979797"/>
<circle cx="10" cy="63" r="1" fill="#979797"/>
<path d="M10 72.324L13.5 68.824L12.6771 68L10 70.6789L7.32346 68L6.5 68.8235L10 72.324Z" fill="#979797"/>
<path d="M11.3833 81.9074C11.3041 81.5193 10.9627 81.2407 10.5667 81.2407H4.58333C4.1231 81.2407 3.75 81.6138 3.75 82.0741V94.5741C3.75 95.0343 4.1231 95.4074 4.58333 95.4074C5.04357 95.4074 5.41667 95.0343 5.41667 94.5741V89.5741H10.0833L10.2833 90.5741C10.3589 90.9643 10.7025 91.2448 11.1 91.2407H15.4167C15.8769 91.2407 16.25 90.8676 16.25 90.4074V83.7407C16.25 83.2805 15.8769 82.9074 15.4167 82.9074H11.5833L11.3833 81.9074Z" fill="url(#paint0_linear_4001_28804)"/>
<defs>
<linearGradient id="paint0_linear_4001_28804" x1="3.75" y1="88.3241" x2="16.25" y2="88.3241" gradientUnits="userSpaceOnUse">
<stop offset="0.015625" stop-color="#BE287B"/>
<stop offset="1" stop-color="#A02167"/>
</linearGradient>
</defs>
</svg>
